<?xml version="1.0" encoding="utf-8"?>
<!-- Generator: Adobe Illustrator 25.0.1, SVG Export Plug-In . SVG Version: 6.00 Build 0)  -->
<svg version="1.1" id="图层_1" xmlns="http://www.w3.org/2000/svg" xmlns:xlink="http://www.w3.org/1999/xlink" x="0px" y="0px"
	 viewBox="0 0 850 415" style="enable-background:new 0 0 850 415;" xml:space="preserve">
<style type="text/css">
	.st0{clip-path:url(#SVGID_2_);}
	.st1{fill:#FFFFFF;}
	.st2{fill:#0066FF;fill-opacity:0.1;}
	.st3{fill:#0066FF;}
	.st4{clip-path:url(#SVGID_4_);}
	.st5{fill:#F2F3F7;}
	.st6{opacity:0.5;fill:#303134;enable-background:new    ;}
	.st7{fill:#E5E9F0;}
	.st8{fill-rule:evenodd;clip-rule:evenodd;fill:#FFFFFF;}
	.st9{fill:none;stroke:#E5E9F0;}
	.st10{fill:none;stroke:#D7DEE3;}
	.st11{fill:#4A4B50;}
	.st12{fill:none;stroke:#D7DEE3;stroke-width:0.825;}
	.st13{fill:#0066FF;fill-opacity:0.2;}
	.st14{fill:#D7DEE3;}
	.st15{opacity:0.5;fill:#4A4B50;enable-background:new    ;}
</style>
<g>
	<defs>
		<path id="SVGID_1_" d="M8,0.5h834c4.418,0,8,3.582,8,8v398c0,4.418-3.582,8-8,8H8c-4.418,0-8-3.582-8-8V8.5
			C0,4.082,3.582,0.5,8,0.5z"/>
	</defs>
	<clipPath id="SVGID_2_">
		<use xlink:href="#SVGID_1_"  style="overflow:visible;"/>
	</clipPath>
	<g class="st0">
		<path class="st1" d="M8,0.5h834c4.418,0,8,3.582,8,8v398c0,4.418-3.582,8-8,8H8c-4.418,0-8-3.582-8-8V8.5C0,4.082,3.582,0.5,8,0.5
			z"/>
		<path class="st2" d="M0,0.5h108v13c0,6.627-5.373,12-12,12H0V0.5z"/>
		<path class="st3" d="M8.819,15.079c0.231,0.202,0.54,0.368,0.928,0.498c0.387,0.13,0.755,0.195,1.104,0.195
			c1.061,0,1.592-0.378,1.592-1.133c0-0.212-0.057-0.402-0.171-0.571c-0.114-0.169-0.27-0.319-0.469-0.449
			c-0.198-0.13-0.571-0.33-1.118-0.6c-0.758-0.378-1.258-0.728-1.499-1.05c-0.241-0.326-0.361-0.697-0.361-1.113
			c0-0.628,0.252-1.126,0.757-1.494S10.722,8.81,11.49,8.81c0.752,0,1.304,0.091,1.655,0.273v1.064
			c-0.456-0.316-1.032-0.474-1.729-0.474c-0.462,0-0.84,0.098-1.133,0.293c-0.29,0.192-0.435,0.461-0.435,0.806
			c0,0.306,0.101,0.555,0.303,0.747c0.202,0.192,0.64,0.454,1.314,0.786c0.742,0.355,1.261,0.71,1.558,1.064
			c0.296,0.355,0.444,0.754,0.444,1.196c0,0.664-0.241,1.174-0.723,1.528c-0.482,0.355-1.151,0.532-2.007,0.532
			c-0.3,0-0.649-0.042-1.05-0.127c-0.397-0.081-0.687-0.184-0.869-0.308V15.079z M18.551,16.256
			c-0.413,0.247-0.912,0.371-1.494,0.371c-0.781,0-1.41-0.251-1.885-0.752c-0.475-0.501-0.713-1.151-0.713-1.948
			c0-0.885,0.256-1.598,0.767-2.139c0.514-0.544,1.201-0.815,2.061-0.815c0.495,0,0.918,0.088,1.27,0.264v0.947
			c-0.381-0.28-0.804-0.42-1.27-0.42c-0.547,0-0.993,0.19-1.338,0.571c-0.342,0.378-0.513,0.882-0.513,1.514
			c0,0.622,0.161,1.108,0.483,1.46c0.326,0.352,0.763,0.527,1.314,0.527c0.465,0,0.905-0.153,1.318-0.459V16.256z M24.4,16.5h-0.952
			v-3.106c0-1.087-0.404-1.631-1.211-1.631c-0.413,0-0.757,0.16-1.03,0.479c-0.273,0.316-0.41,0.715-0.41,1.196V16.5H19.84V8.507
			h0.957v3.481h0.02c0.413-0.677,1.001-1.016,1.763-1.016c1.214,0,1.821,0.734,1.821,2.202V16.5z M30.401,14.044h-3.779
			c0.016,0.576,0.174,1.022,0.474,1.338c0.3,0.312,0.718,0.469,1.255,0.469c0.606,0,1.161-0.194,1.665-0.581v0.855
			c-0.475,0.335-1.105,0.503-1.89,0.503c-0.781,0-1.392-0.247-1.831-0.742c-0.436-0.495-0.654-1.182-0.654-2.061
			c0-0.827,0.239-1.509,0.718-2.046c0.482-0.537,1.079-0.806,1.792-0.806c0.706,0,1.258,0.228,1.655,0.684
			c0.397,0.452,0.596,1.087,0.596,1.904V14.044z M29.444,13.277c-0.003-0.488-0.119-0.866-0.347-1.133
			c-0.228-0.267-0.549-0.4-0.962-0.4c-0.381,0-0.711,0.142-0.991,0.425c-0.277,0.283-0.451,0.653-0.522,1.108H29.444z M39.449,16.5
			h-0.957v-3.101c0-0.586-0.091-1.004-0.273-1.255c-0.182-0.254-0.482-0.381-0.898-0.381c-0.352,0-0.653,0.164-0.903,0.493
			c-0.251,0.329-0.376,0.718-0.376,1.167V16.5h-0.957v-3.198c0-1.025-0.396-1.538-1.187-1.538c-0.365,0-0.667,0.156-0.908,0.469
			c-0.238,0.312-0.356,0.711-0.356,1.196V16.5h-0.957v-5.4h0.957v0.854h0.02c0.384-0.654,0.946-0.981,1.685-0.981
			c0.361,0,0.68,0.099,0.957,0.298c0.277,0.199,0.469,0.467,0.576,0.806c0.4-0.736,0.999-1.103,1.797-1.103
			c1.188,0,1.782,0.732,1.782,2.197V16.5z M41.178,11.476c0.537-0.335,1.157-0.503,1.86-0.503c1.302,0,1.953,0.684,1.953,2.051V16.5
			h-0.947v-0.835H44.02c-0.374,0.641-0.926,0.962-1.655,0.962c-0.524,0-0.941-0.142-1.25-0.425
			c-0.309-0.283-0.464-0.666-0.464-1.147c0-1.009,0.597-1.597,1.792-1.763l1.601-0.225c0-0.882-0.364-1.323-1.094-1.323
			c-0.648,0-1.239,0.218-1.772,0.654V11.476z M42.779,13.961c-0.443,0.059-0.749,0.169-0.918,0.332
			c-0.166,0.163-0.249,0.391-0.249,0.684c0,0.257,0.091,0.467,0.273,0.63c0.182,0.163,0.423,0.244,0.723,0.244
			c0.417,0,0.76-0.147,1.03-0.439c0.27-0.293,0.405-0.661,0.405-1.104V13.79L42.779,13.961z M49.171,16.446
			c-0.208,0.114-0.49,0.171-0.845,0.171c-0.967,0-1.45-0.536-1.45-1.607v-3.12h-0.928V11.1h0.928V9.801l0.952-0.303V11.1h1.343
			v0.791h-1.343v2.949c0,0.355,0.06,0.609,0.181,0.762c0.12,0.153,0.321,0.23,0.601,0.23c0.215,0,0.402-0.06,0.561-0.181V16.446z
			 M50.191,9.195c0-0.169,0.057-0.311,0.171-0.425c0.117-0.117,0.26-0.176,0.43-0.176c0.173,0,0.317,0.057,0.435,0.171
			c0.12,0.114,0.181,0.257,0.181,0.43c0,0.169-0.06,0.311-0.181,0.425c-0.117,0.111-0.262,0.166-0.435,0.166
			s-0.316-0.055-0.43-0.166C50.248,9.506,50.191,9.365,50.191,9.195z M50.304,16.5v-5.4h0.957v5.4H50.304z M56.705,16.256
			c-0.413,0.247-0.912,0.371-1.494,0.371c-0.781,0-1.41-0.251-1.885-0.752c-0.475-0.501-0.713-1.151-0.713-1.948
			c0-0.885,0.256-1.598,0.767-2.139c0.514-0.544,1.201-0.815,2.06-0.815c0.495,0,0.918,0.088,1.27,0.264v0.947
			c-0.381-0.28-0.804-0.42-1.27-0.42c-0.547,0-0.993,0.19-1.338,0.571c-0.342,0.378-0.513,0.882-0.513,1.514
			c0,0.622,0.161,1.108,0.483,1.46c0.326,0.352,0.763,0.527,1.313,0.527c0.465,0,0.905-0.153,1.318-0.459V16.256z M65.641,16.5
			h-0.957v-0.898h-0.02c-0.394,0.684-1.006,1.025-1.836,1.025c-0.684,0-1.227-0.243-1.631-0.728
			c-0.404-0.488-0.605-1.146-0.605-1.973c0-0.892,0.228-1.606,0.684-2.144c0.456-0.54,1.051-0.811,1.787-0.811
			s1.27,0.286,1.602,0.859h0.02V8.507h0.957V16.5z M64.688,13.287c0-0.433-0.143-0.794-0.43-1.084
			c-0.283-0.293-0.633-0.439-1.05-0.439c-0.508,0-0.908,0.19-1.201,0.571c-0.293,0.378-0.439,0.894-0.439,1.548
			c0,0.602,0.14,1.079,0.42,1.431c0.283,0.348,0.659,0.522,1.128,0.522c0.462,0,0.84-0.171,1.133-0.513
			c0.293-0.345,0.439-0.773,0.439-1.284V13.287z M67.232,9.195c0-0.169,0.057-0.311,0.171-0.425c0.117-0.117,0.26-0.176,0.43-0.176
			c0.173,0,0.317,0.057,0.435,0.171c0.12,0.114,0.181,0.257,0.181,0.43c0,0.169-0.06,0.311-0.181,0.425
			c-0.117,0.111-0.262,0.166-0.435,0.166s-0.316-0.055-0.43-0.166C67.289,9.506,67.232,9.365,67.232,9.195z M67.345,16.5v-5.4h0.957
			v5.4H67.345z M70.143,11.476c0.537-0.335,1.157-0.503,1.86-0.503c1.302,0,1.953,0.684,1.953,2.051V16.5h-0.947v-0.835h-0.024
			c-0.374,0.641-0.926,0.962-1.655,0.962c-0.524,0-0.941-0.142-1.25-0.425c-0.309-0.283-0.464-0.666-0.464-1.147
			c0-1.009,0.597-1.597,1.792-1.763l1.602-0.225c0-0.882-0.365-1.323-1.094-1.323c-0.648,0-1.239,0.218-1.772,0.654V11.476z
			 M71.744,13.961c-0.443,0.059-0.749,0.169-0.918,0.332c-0.166,0.163-0.249,0.391-0.249,0.684c0,0.257,0.091,0.467,0.273,0.63
			c0.182,0.163,0.423,0.244,0.723,0.244c0.417,0,0.76-0.147,1.03-0.439c0.27-0.293,0.405-0.661,0.405-1.104V13.79L71.744,13.961z
			 M80.23,16.046c0,1.999-0.97,2.998-2.91,2.998c-0.671,0-1.253-0.125-1.748-0.376v-0.923c0.602,0.335,1.18,0.503,1.733,0.503
			c1.312,0,1.968-0.69,1.968-2.07v-0.571h-0.02c-0.41,0.68-1.022,1.021-1.836,1.021c-0.677,0-1.219-0.243-1.626-0.728
			s-0.61-1.128-0.61-1.929c0-0.921,0.225-1.65,0.674-2.188c0.449-0.54,1.048-0.811,1.797-0.811c0.719,0,1.253,0.286,1.602,0.859
			h0.02V11.1h0.957V16.046z M79.273,13.287c0.003-0.417-0.137-0.775-0.42-1.074c-0.283-0.3-0.632-0.449-1.045-0.449
			c-0.521,0-0.926,0.192-1.216,0.576c-0.29,0.381-0.435,0.905-0.435,1.572c0,0.573,0.14,1.037,0.42,1.392
			c0.28,0.355,0.651,0.532,1.113,0.532c0.465,0,0.846-0.169,1.143-0.508c0.296-0.339,0.443-0.768,0.439-1.289V13.287z
			 M84.835,12.047c-0.16-0.114-0.379-0.171-0.659-0.171c-0.371,0-0.677,0.174-0.918,0.522c-0.241,0.345-0.361,0.801-0.361,1.367
			V16.5h-0.957v-5.4h0.957v1.099h0.02c0.273-0.794,0.745-1.191,1.416-1.191c0.218,0,0.386,0.024,0.503,0.073V12.047z M85.885,11.476
			c0.537-0.335,1.157-0.503,1.86-0.503c1.302,0,1.953,0.684,1.953,2.051V16.5h-0.947v-0.835h-0.024
			c-0.374,0.641-0.926,0.962-1.655,0.962c-0.524,0-0.941-0.142-1.25-0.425c-0.309-0.283-0.464-0.666-0.464-1.147
			c0-1.009,0.597-1.597,1.792-1.763l1.602-0.225c0-0.882-0.365-1.323-1.094-1.323c-0.648,0-1.239,0.218-1.772,0.654V11.476z
			 M87.486,13.961c-0.443,0.059-0.749,0.169-0.918,0.332c-0.166,0.163-0.249,0.391-0.249,0.684c0,0.257,0.091,0.467,0.273,0.63
			c0.182,0.163,0.423,0.244,0.723,0.244c0.417,0,0.76-0.147,1.03-0.439c0.27-0.293,0.405-0.661,0.405-1.104V13.79L87.486,13.961z
			 M99.059,16.5h-0.957v-3.101c0-0.586-0.091-1.004-0.273-1.255c-0.182-0.254-0.482-0.381-0.898-0.381
			c-0.352,0-0.653,0.164-0.903,0.493c-0.251,0.329-0.376,0.718-0.376,1.167V16.5h-0.957v-3.198c0-1.025-0.396-1.538-1.187-1.538
			c-0.364,0-0.667,0.156-0.908,0.469c-0.238,0.312-0.356,0.711-0.356,1.196V16.5h-0.957v-5.4h0.957v0.854h0.02
			c0.384-0.654,0.946-0.981,1.685-0.981c0.361,0,0.68,0.099,0.957,0.298c0.277,0.199,0.469,0.467,0.576,0.806
			c0.4-0.736,0.999-1.103,1.797-1.103c1.188,0,1.782,0.732,1.782,2.197V16.5z"/>
		<g>
			<defs>
				<path id="SVGID_3_" d="M255,54.5h156c6.627,0,12,5.373,12,12l0,0c0,6.627-5.373,12-12,12H255c-6.627,0-12-5.373-12-12l0,0
					C243,59.873,248.373,54.5,255,54.5z"/>
			</defs>
			<clipPath id="SVGID_4_">
				<use xlink:href="#SVGID_3_"  style="overflow:visible;"/>
			</clipPath>
			<g class="st4">
				<path class="st5" d="M255,54.5h156c6.627,0,12,5.373,12,12l0,0c0,6.627-5.373,12-12,12H255c-6.627,0-12-5.373-12-12l0,0
					C243,59.873,248.373,54.5,255,54.5z"/>
				<path class="st6" d="M292.328,65.02l-1.933,6.48h-1.196l-1.289-4.547c-0.055-0.195-0.09-0.402-0.105-0.621h-0.024
					c-0.011,0.164-0.056,0.367-0.135,0.609l-1.394,4.559h-1.16l-1.946-6.48h1.196l1.295,4.805c0.039,0.145,0.068,0.342,0.088,0.592
					h0.046c0.016-0.215,0.053-0.418,0.112-0.609l1.394-4.787h1.061l1.359,4.811c0.039,0.141,0.071,0.34,0.094,0.598h0.053
					c0.008-0.172,0.043-0.371,0.105-0.598l1.266-4.811H292.328z M301.809,65.02l-1.934,6.48h-1.195l-1.289-4.547
					c-0.055-0.195-0.09-0.402-0.106-0.621h-0.023c-0.012,0.164-0.057,0.367-0.135,0.609l-1.395,4.559h-1.16l-1.945-6.48h1.195
					l1.295,4.805c0.039,0.145,0.069,0.342,0.088,0.592h0.047c0.016-0.215,0.053-0.418,0.111-0.609l1.395-4.787h1.06l1.36,4.811
					c0.039,0.141,0.07,0.34,0.093,0.598h0.053c0.008-0.172,0.043-0.371,0.106-0.598l1.265-4.811H301.809z M311.289,65.02
					l-1.934,6.48h-1.195l-1.289-4.547c-0.055-0.195-0.09-0.402-0.105-0.621h-0.024c-0.012,0.164-0.056,0.367-0.135,0.609
					l-1.394,4.559h-1.16l-1.946-6.48h1.196l1.295,4.805c0.039,0.145,0.068,0.342,0.088,0.592h0.046
					c0.016-0.215,0.053-0.418,0.112-0.609l1.394-4.787h1.061l1.359,4.811c0.039,0.141,0.071,0.34,0.094,0.598h0.053
					c0.007-0.172,0.043-0.371,0.105-0.598l1.266-4.811H311.289z M312.139,70.896c0-0.211,0.072-0.389,0.216-0.533
					c0.145-0.144,0.325-0.217,0.54-0.217c0.218,0,0.4,0.074,0.544,0.223c0.145,0.145,0.217,0.32,0.217,0.527
					c0,0.203-0.072,0.379-0.217,0.527c-0.144,0.145-0.328,0.217-0.55,0.217c-0.215,0-0.395-0.072-0.539-0.217
					C312.209,71.275,312.139,71.1,312.139,70.896z M324.689,71.5h-1.148v-3.721c0-0.703-0.109-1.205-0.328-1.506
					c-0.219-0.305-0.578-0.457-1.078-0.457c-0.422,0-0.783,0.197-1.084,0.592c-0.301,0.394-0.451,0.861-0.451,1.4V71.5h-1.149
					v-3.838c0-1.23-0.474-1.846-1.424-1.846c-0.437,0-0.8,0.188-1.089,0.562c-0.286,0.375-0.428,0.854-0.428,1.436V71.5h-1.149
					v-6.48h1.149v1.025h0.023c0.461-0.785,1.135-1.178,2.022-1.178c0.433,0,0.816,0.119,1.148,0.357
					c0.332,0.238,0.563,0.561,0.692,0.967c0.48-0.883,1.199-1.324,2.156-1.324c1.426,0,2.138,0.879,2.138,2.637V71.5z
					 M331.088,71.207c-0.496,0.297-1.094,0.445-1.793,0.445c-0.938,0-1.691-0.301-2.262-0.902c-0.57-0.602-0.855-1.381-0.855-2.338
					c0-1.062,0.306-1.918,0.92-2.566c0.617-0.652,1.441-0.979,2.472-0.979c0.594,0,1.102,0.105,1.524,0.316v1.137
					c-0.457-0.336-0.965-0.504-1.524-0.504c-0.656,0-1.191,0.229-1.605,0.686c-0.41,0.453-0.615,1.059-0.615,1.816
					c0,0.746,0.193,1.33,0.58,1.752c0.39,0.422,0.916,0.633,1.576,0.633c0.558,0,1.086-0.184,1.582-0.551V71.207z M338.107,71.5
					h-1.142v-3.727c0-1.305-0.485-1.957-1.453-1.957c-0.496,0-0.908,0.191-1.237,0.574c-0.328,0.379-0.492,0.857-0.492,1.436V71.5
					h-1.148v-9.592h1.148v4.178h0.024c0.496-0.812,1.201-1.219,2.115-1.219c1.457,0,2.185,0.881,2.185,2.643V71.5z M339.596,68.33
					c0-1.07,0.299-1.914,0.896-2.531c0.598-0.621,1.408-0.932,2.432-0.932c0.972,0,1.734,0.299,2.285,0.896
					c0.555,0.594,0.832,1.416,0.832,2.467c0,1.023-0.295,1.85-0.885,2.479s-1.381,0.943-2.373,0.943
					c-0.969,0-1.742-0.305-2.32-0.914C339.885,70.129,339.596,69.326,339.596,68.33z M340.768,68.295
					c0,0.746,0.187,1.334,0.562,1.764c0.379,0.43,0.887,0.645,1.524,0.645c0.656,0,1.156-0.209,1.5-0.627
					c0.343-0.422,0.515-1.025,0.515-1.811c0-0.789-0.172-1.395-0.515-1.816c-0.344-0.422-0.844-0.633-1.5-0.633
					c-0.645,0-1.155,0.221-1.53,0.662C340.953,66.92,340.768,67.525,340.768,68.295z M347.295,70.1
					c0.578,0.418,1.201,0.627,1.869,0.627c0.895,0,1.342-0.293,1.342-0.879c0-0.25-0.098-0.455-0.293-0.615
					c-0.195-0.164-0.592-0.357-1.19-0.58c-0.718-0.289-1.185-0.574-1.4-0.855c-0.215-0.285-0.322-0.629-0.322-1.031
					c0-0.574,0.242-1.033,0.726-1.377c0.489-0.348,1.088-0.521,1.799-0.521c0.551,0,1.063,0.096,1.535,0.287v1.107
					c-0.484-0.312-1.033-0.469-1.646-0.469c-0.367,0-0.666,0.08-0.897,0.24c-0.23,0.16-0.345,0.371-0.345,0.633
					c0,0.258,0.082,0.459,0.246,0.604c0.168,0.145,0.537,0.33,1.107,0.557c0.723,0.27,1.211,0.549,1.465,0.838
					c0.254,0.289,0.381,0.646,0.381,1.072c0,0.594-0.244,1.062-0.733,1.406c-0.484,0.34-1.113,0.51-1.886,0.51
					c-0.672,0-1.258-0.127-1.758-0.381V70.1z M358.492,68.553h-4.535c0.02,0.691,0.209,1.227,0.568,1.606
					c0.36,0.375,0.862,0.562,1.506,0.562c0.727,0,1.393-0.232,1.998-0.697v1.025c-0.57,0.402-1.326,0.604-2.267,0.604
					c-0.938,0-1.67-0.297-2.198-0.891c-0.523-0.594-0.785-1.418-0.785-2.473c0-0.992,0.287-1.811,0.862-2.455
					c0.578-0.645,1.295-0.967,2.15-0.967c0.848,0,1.51,0.273,1.986,0.82c0.477,0.543,0.715,1.305,0.715,2.285V68.553z
					 M357.344,67.633c-0.004-0.586-0.143-1.039-0.416-1.359c-0.274-0.32-0.658-0.48-1.155-0.48c-0.457,0-0.853,0.17-1.189,0.51
					c-0.332,0.34-0.541,0.783-0.627,1.33H357.344z M359.693,70.896c0-0.211,0.073-0.389,0.217-0.533
					c0.145-0.144,0.324-0.217,0.539-0.217c0.219,0,0.401,0.074,0.545,0.223c0.145,0.145,0.217,0.32,0.217,0.527
					c0,0.203-0.072,0.379-0.217,0.527c-0.144,0.145-0.328,0.217-0.551,0.217c-0.214,0-0.394-0.072-0.539-0.217
					C359.764,71.275,359.693,71.1,359.693,70.896z M367.393,71.207c-0.497,0.297-1.094,0.445-1.793,0.445
					c-0.938,0-1.692-0.301-2.262-0.902c-0.57-0.602-0.856-1.381-0.856-2.338c0-1.062,0.307-1.918,0.92-2.566
					c0.618-0.652,1.442-0.979,2.473-0.979c0.594,0,1.102,0.105,1.523,0.316v1.137c-0.457-0.336-0.964-0.504-1.523-0.504
					c-0.656,0-1.191,0.229-1.605,0.686c-0.411,0.453-0.616,1.059-0.616,1.816c0,0.746,0.194,1.33,0.58,1.752
					c0.391,0.422,0.916,0.633,1.577,0.633c0.558,0,1.085-0.184,1.582-0.551V71.207z M368.506,68.33c0-1.07,0.299-1.914,0.896-2.531
					c0.598-0.621,1.409-0.932,2.432-0.932c0.973,0,1.734,0.299,2.285,0.896c0.555,0.594,0.832,1.416,0.832,2.467
					c0,1.023-0.295,1.85-0.885,2.479c-0.589,0.629-1.38,0.943-2.373,0.943c-0.968,0-1.742-0.305-2.32-0.914
					C368.795,70.129,368.506,69.326,368.506,68.33z M369.678,68.295c0,0.746,0.187,1.334,0.562,1.764
					c0.379,0.43,0.887,0.645,1.524,0.645c0.656,0,1.156-0.209,1.5-0.627c0.343-0.422,0.515-1.025,0.515-1.811
					c0-0.789-0.172-1.395-0.515-1.816c-0.344-0.422-0.844-0.633-1.5-0.633c-0.645,0-1.155,0.221-1.53,0.662
					C369.863,66.92,369.678,67.525,369.678,68.295z M385.896,71.5h-1.148v-3.721c0-0.703-0.109-1.205-0.328-1.506
					c-0.219-0.305-0.578-0.457-1.078-0.457c-0.422,0-0.783,0.197-1.084,0.592c-0.301,0.394-0.451,0.861-0.451,1.4V71.5h-1.149
					v-3.838c0-1.23-0.474-1.846-1.424-1.846c-0.437,0-0.8,0.188-1.089,0.562c-0.286,0.375-0.428,0.854-0.428,1.436V71.5h-1.149
					v-6.48h1.149v1.025h0.023c0.461-0.785,1.135-1.178,2.022-1.178c0.433,0,0.816,0.119,1.148,0.357
					c0.332,0.238,0.563,0.561,0.692,0.967c0.48-0.883,1.199-1.324,2.156-1.324c1.426,0,2.138,0.879,2.138,2.637V71.5z
					 M387.49,70.896c0-0.211,0.072-0.389,0.217-0.533c0.145-0.144,0.324-0.217,0.539-0.217c0.219,0,0.4,0.074,0.545,0.223
					c0.145,0.145,0.217,0.32,0.217,0.527c0,0.203-0.072,0.379-0.217,0.527c-0.145,0.145-0.328,0.217-0.551,0.217
					c-0.215,0-0.394-0.072-0.539-0.217C387.561,71.275,387.49,71.1,387.49,70.896z M395.189,71.207
					c-0.496,0.297-1.093,0.445-1.793,0.445c-0.937,0-1.691-0.301-2.261-0.902c-0.571-0.602-0.856-1.381-0.856-2.338
					c0-1.062,0.307-1.918,0.92-2.566c0.617-0.652,1.442-0.979,2.473-0.979c0.594,0,1.101,0.105,1.523,0.316v1.137
					c-0.457-0.336-0.965-0.504-1.523-0.504c-0.656,0-1.192,0.229-1.606,0.686c-0.41,0.453-0.615,1.059-0.615,1.816
					c0,0.746,0.194,1.33,0.58,1.752c0.391,0.422,0.916,0.633,1.576,0.633c0.559,0,1.086-0.184,1.582-0.551V71.207z M402.215,71.5
					h-1.143v-3.686c0-1.332-0.486-1.998-1.459-1.998c-0.504,0-0.918,0.188-1.242,0.562s-0.486,0.85-0.486,1.424V71.5h-1.149v-6.48
					h1.149v1.072h0.023c0.488-0.816,1.197-1.225,2.127-1.225c0.711,0,1.252,0.229,1.623,0.685c0.371,0.453,0.557,1.115,0.557,1.986
					V71.5z"/>
				<path class="st7" d="M255,54.5h12c6.627,0,12,5.373,12,12l0,0c0,6.627-5.373,12-12,12h-12c-6.627,0-12-5.373-12-12l0,0
					C243,59.873,248.373,54.5,255,54.5z"/>
				<path class="st8" d="M260.999,59.5c-1.749,0-3.166,1.418-3.166,3.167V64h-1.084c-0.598,0-1.083,0.485-1.083,1.083v6.5
					c0,0.598,0.485,1.083,1.083,1.083h8.5c0.599,0,1.084-0.485,1.084-1.083v-6.5c0-0.598-0.485-1.083-1.084-1.083h-1.083v-1.333
					C264.166,60.918,262.748,59.5,260.999,59.5z M263.166,64v-1.333c0-1.197-0.97-2.167-2.167-2.167
					c-1.196,0-2.166,0.97-2.166,2.167V64H263.166z M261.5,68.533c0.299-0.173,0.5-0.496,0.5-0.866c0-0.552-0.448-1-1-1
					c-0.553,0-1,0.448-1,1c0,0.37,0.201,0.693,0.5,0.866V70c0,0.276,0.224,0.5,0.5,0.5s0.5-0.224,0.5-0.5V68.533z"/>
			</g>
		</g>
		<path class="st1" d="M251,87h348c4.142,0,7.5,3.358,7.5,7.5v237c0,4.142-3.358,7.5-7.5,7.5H251c-4.142,0-7.5-3.358-7.5-7.5v-237
			C243.5,90.358,246.858,87,251,87z"/>
		<path class="st9" d="M251,87h348c4.142,0,7.5,3.358,7.5,7.5v237c0,4.142-3.358,7.5-7.5,7.5H251c-4.142,0-7.5-3.358-7.5-7.5v-237
			C243.5,90.358,246.858,87,251,87z"/>
		<path class="st6" d="M263.328,105.02l-1.933,6.48h-1.196l-1.289-4.547c-0.055-0.195-0.09-0.402-0.105-0.621h-0.024
			c-0.011,0.164-0.056,0.367-0.135,0.609l-1.394,4.559h-1.16l-1.946-6.48h1.196l1.295,4.804c0.039,0.145,0.068,0.342,0.088,0.592
			h0.046c0.016-0.215,0.053-0.418,0.112-0.609l1.394-4.787h1.061l1.359,4.81c0.039,0.141,0.071,0.34,0.094,0.598h0.053
			c0.008-0.172,0.043-0.371,0.105-0.598l1.266-4.81H263.328z M272.809,105.02l-1.934,6.48h-1.195l-1.289-4.547
			c-0.055-0.195-0.09-0.402-0.106-0.621h-0.023c-0.012,0.164-0.057,0.367-0.135,0.609l-1.395,4.559h-1.16l-1.945-6.48h1.195
			l1.295,4.804c0.039,0.145,0.069,0.342,0.088,0.592h0.047c0.016-0.215,0.053-0.418,0.111-0.609l1.395-4.787h1.06l1.36,4.81
			c0.039,0.141,0.07,0.34,0.093,0.598h0.053c0.008-0.172,0.043-0.371,0.106-0.598l1.265-4.81H272.809z M282.289,105.02l-1.934,6.48
			h-1.195l-1.289-4.547c-0.055-0.195-0.09-0.402-0.105-0.621h-0.024c-0.012,0.164-0.056,0.367-0.135,0.609l-1.394,4.559h-1.16
			l-1.946-6.48h1.196l1.295,4.804c0.039,0.145,0.068,0.342,0.088,0.592h0.046c0.016-0.215,0.053-0.418,0.112-0.609l1.394-4.787
			h1.061l1.359,4.81c0.039,0.141,0.071,0.34,0.094,0.598h0.053c0.007-0.172,0.043-0.371,0.105-0.598l1.266-4.81H282.289z
			 M283.139,110.896c0-0.21,0.072-0.388,0.216-0.533c0.145-0.144,0.325-0.217,0.54-0.217c0.218,0,0.4,0.075,0.544,0.223
			c0.145,0.145,0.217,0.32,0.217,0.527c0,0.204-0.072,0.379-0.217,0.528c-0.144,0.144-0.328,0.217-0.55,0.217
			c-0.215,0-0.395-0.073-0.539-0.217C283.209,111.275,283.139,111.1,283.139,110.896z M295.689,111.5h-1.148v-3.721
			c0-0.703-0.109-1.205-0.328-1.506c-0.219-0.304-0.578-0.457-1.078-0.457c-0.422,0-0.783,0.198-1.084,0.592
			c-0.301,0.395-0.451,0.862-0.451,1.401v3.691h-1.149v-3.838c0-1.23-0.474-1.846-1.424-1.846c-0.437,0-0.8,0.188-1.089,0.563
			c-0.286,0.375-0.428,0.853-0.428,1.435v3.686h-1.149v-6.48h1.149v1.025h0.023c0.461-0.785,1.135-1.178,2.022-1.178
			c0.433,0,0.816,0.119,1.148,0.358c0.332,0.238,0.563,0.56,0.692,0.966c0.48-0.882,1.199-1.324,2.156-1.324
			c1.426,0,2.138,0.879,2.138,2.637V111.5z M302.088,111.207c-0.496,0.297-1.094,0.445-1.793,0.445c-0.938,0-1.691-0.3-2.262-0.902
			c-0.57-0.602-0.855-1.381-0.855-2.338c0-1.062,0.306-1.918,0.92-2.566c0.617-0.653,1.441-0.979,2.472-0.979
			c0.594,0,1.102,0.106,1.524,0.317v1.136c-0.457-0.336-0.965-0.504-1.524-0.504c-0.656,0-1.191,0.229-1.605,0.686
			c-0.41,0.453-0.615,1.059-0.615,1.816c0,0.746,0.193,1.33,0.58,1.752c0.39,0.422,0.916,0.633,1.576,0.633
			c0.558,0,1.086-0.183,1.582-0.551V111.207z M309.107,111.5h-1.142v-3.727c0-1.304-0.485-1.957-1.453-1.957
			c-0.496,0-0.908,0.192-1.237,0.575c-0.328,0.379-0.492,0.857-0.492,1.435v3.674h-1.148v-9.592h1.148v4.178h0.024
			c0.496-0.813,1.201-1.219,2.115-1.219c1.457,0,2.185,0.881,2.185,2.643V111.5z M310.596,108.33c0-1.07,0.299-1.914,0.896-2.531
			c0.598-0.621,1.408-0.932,2.432-0.932c0.972,0,1.734,0.299,2.285,0.897c0.555,0.593,0.832,1.416,0.832,2.466
			c0,1.024-0.295,1.85-0.885,2.479s-1.381,0.943-2.373,0.943c-0.969,0-1.742-0.304-2.32-0.914
			C310.885,110.129,310.596,109.326,310.596,108.33z M311.768,108.295c0,0.746,0.187,1.334,0.562,1.764
			c0.379,0.429,0.887,0.644,1.524,0.644c0.656,0,1.156-0.209,1.5-0.627c0.343-0.422,0.515-1.025,0.515-1.81
			c0-0.789-0.172-1.395-0.515-1.817c-0.344-0.422-0.844-0.633-1.5-0.633c-0.645,0-1.155,0.221-1.53,0.663
			C311.953,106.92,311.768,107.525,311.768,108.295z M318.295,110.1c0.578,0.418,1.201,0.627,1.869,0.627
			c0.895,0,1.342-0.293,1.342-0.879c0-0.25-0.098-0.455-0.293-0.616c-0.195-0.164-0.592-0.357-1.19-0.58
			c-0.718-0.289-1.185-0.574-1.4-0.855c-0.215-0.285-0.322-0.629-0.322-1.031c0-0.575,0.242-1.034,0.726-1.377
			c0.489-0.348,1.088-0.522,1.799-0.522c0.551,0,1.063,0.096,1.535,0.287v1.108c-0.484-0.313-1.033-0.469-1.646-0.469
			c-0.367,0-0.666,0.08-0.897,0.24c-0.23,0.16-0.345,0.371-0.345,0.633c0,0.258,0.082,0.459,0.246,0.604
			c0.168,0.144,0.537,0.33,1.107,0.556c0.723,0.27,1.211,0.549,1.465,0.838c0.254,0.289,0.381,0.647,0.381,1.072
			c0,0.594-0.244,1.063-0.733,1.407c-0.484,0.339-1.113,0.509-1.886,0.509c-0.672,0-1.258-0.127-1.758-0.381V110.1z
			 M329.492,108.553h-4.535c0.02,0.691,0.209,1.226,0.568,1.605c0.36,0.375,0.862,0.563,1.506,0.563
			c0.727,0,1.393-0.233,1.998-0.698v1.026c-0.57,0.402-1.326,0.603-2.267,0.603c-0.938,0-1.67-0.297-2.198-0.89
			c-0.523-0.594-0.785-1.418-0.785-2.473c0-0.992,0.287-1.81,0.862-2.455c0.578-0.645,1.295-0.967,2.15-0.967
			c0.848,0,1.51,0.274,1.986,0.821c0.477,0.542,0.715,1.304,0.715,2.285V108.553z M328.344,107.633
			c-0.004-0.586-0.143-1.039-0.416-1.36c-0.274-0.32-0.658-0.48-1.155-0.48c-0.457,0-0.853,0.17-1.189,0.51
			c-0.332,0.34-0.541,0.783-0.627,1.33H328.344z M330.693,110.896c0-0.21,0.073-0.388,0.217-0.533
			c0.145-0.144,0.324-0.217,0.539-0.217c0.219,0,0.401,0.075,0.545,0.223c0.145,0.145,0.217,0.32,0.217,0.527
			c0,0.204-0.072,0.379-0.217,0.528c-0.144,0.144-0.328,0.217-0.551,0.217c-0.214,0-0.394-0.073-0.539-0.217
			C330.764,111.275,330.693,111.1,330.693,110.896z M338.393,111.207c-0.497,0.297-1.094,0.445-1.793,0.445
			c-0.938,0-1.692-0.3-2.262-0.902c-0.57-0.602-0.856-1.381-0.856-2.338c0-1.062,0.307-1.918,0.92-2.566
			c0.618-0.653,1.442-0.979,2.473-0.979c0.594,0,1.102,0.106,1.523,0.317v1.136c-0.457-0.336-0.964-0.504-1.523-0.504
			c-0.656,0-1.191,0.229-1.605,0.686c-0.411,0.453-0.616,1.059-0.616,1.816c0,0.746,0.194,1.33,0.58,1.752
			c0.391,0.422,0.916,0.633,1.577,0.633c0.558,0,1.085-0.183,1.582-0.551V111.207z M339.506,108.33c0-1.07,0.299-1.914,0.896-2.531
			c0.598-0.621,1.409-0.932,2.432-0.932c0.973,0,1.734,0.299,2.285,0.897c0.555,0.593,0.832,1.416,0.832,2.466
			c0,1.024-0.295,1.85-0.885,2.479c-0.589,0.629-1.38,0.943-2.373,0.943c-0.968,0-1.742-0.304-2.32-0.914
			C339.795,110.129,339.506,109.326,339.506,108.33z M340.678,108.295c0,0.746,0.187,1.334,0.562,1.764
			c0.379,0.429,0.887,0.644,1.524,0.644c0.656,0,1.156-0.209,1.5-0.627c0.343-0.422,0.515-1.025,0.515-1.81
			c0-0.789-0.172-1.395-0.515-1.817c-0.344-0.422-0.844-0.633-1.5-0.633c-0.645,0-1.155,0.221-1.53,0.663
			C340.863,106.92,340.678,107.525,340.678,108.295z M356.896,111.5h-1.148v-3.721c0-0.703-0.109-1.205-0.328-1.506
			c-0.219-0.304-0.578-0.457-1.078-0.457c-0.422,0-0.783,0.198-1.084,0.592c-0.301,0.395-0.451,0.862-0.451,1.401v3.691h-1.149
			v-3.838c0-1.23-0.474-1.846-1.424-1.846c-0.437,0-0.8,0.188-1.089,0.563c-0.286,0.375-0.428,0.853-0.428,1.435v3.686h-1.149v-6.48
			h1.149v1.025h0.023c0.461-0.785,1.135-1.178,2.022-1.178c0.433,0,0.816,0.119,1.148,0.358c0.332,0.238,0.563,0.56,0.692,0.966
			c0.48-0.882,1.199-1.324,2.156-1.324c1.426,0,2.138,0.879,2.138,2.637V111.5z M358.49,110.896c0-0.21,0.072-0.388,0.217-0.533
			c0.145-0.144,0.324-0.217,0.539-0.217c0.219,0,0.4,0.075,0.545,0.223c0.145,0.145,0.217,0.32,0.217,0.527
			c0,0.204-0.072,0.379-0.217,0.528c-0.145,0.144-0.328,0.217-0.551,0.217c-0.215,0-0.394-0.073-0.539-0.217
			C358.561,111.275,358.49,111.1,358.49,110.896z M366.189,111.207c-0.496,0.297-1.093,0.445-1.793,0.445
			c-0.937,0-1.691-0.3-2.261-0.902c-0.571-0.602-0.856-1.381-0.856-2.338c0-1.062,0.307-1.918,0.92-2.566
			c0.617-0.653,1.442-0.979,2.473-0.979c0.594,0,1.101,0.106,1.523,0.317v1.136c-0.457-0.336-0.965-0.504-1.523-0.504
			c-0.656,0-1.192,0.229-1.606,0.686c-0.41,0.453-0.615,1.059-0.615,1.816c0,0.746,0.194,1.33,0.58,1.752
			c0.391,0.422,0.916,0.633,1.576,0.633c0.559,0,1.086-0.183,1.582-0.551V111.207z M373.215,111.5h-1.143v-3.686
			c0-1.332-0.486-1.998-1.459-1.998c-0.504,0-0.918,0.188-1.242,0.563s-0.486,0.85-0.486,1.424v3.697h-1.149v-6.48h1.149v1.072
			h0.023c0.488-0.817,1.197-1.225,2.127-1.225c0.711,0,1.252,0.229,1.623,0.686c0.371,0.453,0.557,1.115,0.557,1.986V111.5z
			 M386.984,105.02l-1.933,6.48h-1.196l-1.289-4.547c-0.054-0.195-0.089-0.402-0.105-0.621h-0.023
			c-0.012,0.164-0.057,0.367-0.135,0.609l-1.395,4.559h-1.16l-1.945-6.48h1.195l1.295,4.804c0.039,0.145,0.068,0.342,0.088,0.592
			h0.047c0.015-0.215,0.052-0.418,0.111-0.609l1.395-4.787h1.06l1.36,4.81c0.039,0.141,0.07,0.34,0.093,0.598h0.053
			c0.008-0.172,0.043-0.371,0.105-0.598l1.266-4.81H386.984z M388.314,105.471c0.645-0.403,1.389-0.604,2.233-0.604
			c1.562,0,2.344,0.821,2.344,2.461v4.172h-1.137v-1.002h-0.029c-0.45,0.77-1.112,1.154-1.987,1.154c-0.629,0-1.129-0.17-1.5-0.509
			c-0.371-0.34-0.556-0.799-0.556-1.377c0-1.211,0.716-1.916,2.15-2.116l1.922-0.269c0-1.059-0.438-1.588-1.313-1.588
			c-0.777,0-1.486,0.262-2.127,0.785V105.471z M390.236,108.453c-0.531,0.07-0.898,0.203-1.101,0.399
			c-0.199,0.195-0.299,0.468-0.299,0.82c0,0.308,0.109,0.56,0.328,0.756c0.219,0.195,0.508,0.293,0.867,0.293
			c0.5,0,0.912-0.176,1.237-0.528c0.324-0.351,0.486-0.793,0.486-1.324v-0.621L390.236,108.453z M400.273,111.5h-1.142v-3.686
			c0-1.332-0.486-1.998-1.459-1.998c-0.504,0-0.918,0.188-1.242,0.563c-0.325,0.375-0.487,0.85-0.487,1.424v3.697h-1.148v-6.48
			h1.148v1.072h0.024c0.488-0.817,1.197-1.225,2.127-1.225c0.711,0,1.252,0.229,1.623,0.686c0.371,0.453,0.556,1.115,0.556,1.986
			V111.5z M405.301,111.436c-0.25,0.136-0.588,0.205-1.014,0.205c-1.16,0-1.74-0.643-1.74-1.928v-3.744h-1.113v-0.949h1.113v-1.559
			l1.142-0.363v1.922h1.612v0.949h-1.612v3.539c0,0.426,0.073,0.73,0.217,0.914c0.145,0.183,0.385,0.275,0.721,0.275
			c0.258,0,0.482-0.072,0.674-0.217V111.436z M406.303,110.1c0.578,0.418,1.201,0.627,1.869,0.627c0.894,0,1.342-0.293,1.342-0.879
			c0-0.25-0.098-0.455-0.293-0.616c-0.196-0.164-0.592-0.357-1.19-0.58c-0.719-0.289-1.185-0.574-1.4-0.855
			c-0.215-0.285-0.322-0.629-0.322-1.031c0-0.575,0.242-1.034,0.726-1.377c0.488-0.348,1.088-0.522,1.799-0.522
			c0.551,0,1.062,0.096,1.535,0.287v1.108c-0.484-0.313-1.033-0.469-1.646-0.469c-0.368,0-0.666,0.08-0.897,0.24
			c-0.23,0.16-0.346,0.371-0.346,0.633c0,0.258,0.082,0.459,0.247,0.604c0.168,0.144,0.537,0.33,1.107,0.556
			c0.723,0.27,1.211,0.549,1.465,0.838s0.381,0.647,0.381,1.072c0,0.594-0.244,1.063-0.733,1.407
			c-0.484,0.339-1.113,0.509-1.886,0.509c-0.672,0-1.258-0.127-1.758-0.381V110.1z M418.883,111.436
			c-0.25,0.136-0.588,0.205-1.014,0.205c-1.16,0-1.74-0.643-1.74-1.928v-3.744h-1.113v-0.949h1.113v-1.559l1.142-0.363v1.922h1.612
			v0.949h-1.612v3.539c0,0.426,0.073,0.73,0.217,0.914c0.145,0.183,0.385,0.275,0.721,0.275c0.258,0,0.482-0.072,0.674-0.217
			V111.436z M419.814,108.33c0-1.07,0.299-1.914,0.897-2.531c0.598-0.621,1.408-0.932,2.432-0.932c0.972,0,1.734,0.299,2.285,0.897
			c0.554,0.593,0.832,1.416,0.832,2.466c0,1.024-0.295,1.85-0.885,2.479s-1.381,0.943-2.373,0.943c-0.969,0-1.742-0.304-2.32-0.914
			C420.104,110.129,419.814,109.326,419.814,108.33z M420.986,108.295c0,0.746,0.188,1.334,0.563,1.764
			c0.379,0.429,0.887,0.644,1.523,0.644c0.657,0,1.157-0.209,1.5-0.627c0.344-0.422,0.516-1.025,0.516-1.81
			c0-0.789-0.172-1.395-0.516-1.817c-0.343-0.422-0.843-0.633-1.5-0.633c-0.644,0-1.154,0.221-1.529,0.663
			C421.172,106.92,420.986,107.525,420.986,108.295z M435.904,111.207c-0.496,0.297-1.093,0.445-1.793,0.445
			c-0.937,0-1.691-0.3-2.261-0.902c-0.571-0.602-0.856-1.381-0.856-2.338c0-1.062,0.307-1.918,0.92-2.566
			c0.617-0.653,1.441-0.979,2.473-0.979c0.593,0,1.101,0.106,1.523,0.317v1.136c-0.457-0.336-0.965-0.504-1.523-0.504
			c-0.657,0-1.192,0.229-1.606,0.686c-0.41,0.453-0.615,1.059-0.615,1.816c0,0.746,0.193,1.33,0.58,1.752
			c0.391,0.422,0.916,0.633,1.576,0.633c0.559,0,1.086-0.183,1.582-0.551V111.207z M437.018,108.33c0-1.07,0.298-1.914,0.896-2.531
			c0.598-0.621,1.408-0.932,2.432-0.932c0.972,0,1.734,0.299,2.285,0.897c0.555,0.593,0.832,1.416,0.832,2.466
			c0,1.024-0.295,1.85-0.885,2.479s-1.381,0.943-2.373,0.943c-0.969,0-1.742-0.304-2.32-0.914
			C437.307,110.129,437.018,109.326,437.018,108.33z M438.189,108.295c0,0.746,0.188,1.334,0.563,1.764
			c0.379,0.429,0.887,0.644,1.523,0.644c0.657,0,1.157-0.209,1.5-0.627c0.344-0.422,0.516-1.025,0.516-1.81
			c0-0.789-0.172-1.395-0.516-1.817c-0.343-0.422-0.843-0.633-1.5-0.633c-0.644,0-1.154,0.221-1.529,0.663
			C438.375,106.92,438.189,107.525,438.189,108.295z M450.559,111.5h-1.143v-3.686c0-1.332-0.486-1.998-1.459-1.998
			c-0.504,0-0.918,0.188-1.242,0.563s-0.486,0.85-0.486,1.424v3.697h-1.149v-6.48h1.149v1.072h0.023
			c0.488-0.817,1.197-1.225,2.127-1.225c0.711,0,1.252,0.229,1.623,0.686c0.371,0.453,0.557,1.115,0.557,1.986V111.5z
			 M457.953,111.5h-1.142v-3.686c0-1.332-0.487-1.998-1.459-1.998c-0.504,0-0.918,0.188-1.243,0.563
			c-0.324,0.375-0.486,0.85-0.486,1.424v3.697h-1.148v-6.48h1.148v1.072h0.023c0.489-0.817,1.198-1.225,2.127-1.225
			c0.711,0,1.252,0.229,1.623,0.686c0.372,0.453,0.557,1.115,0.557,1.986V111.5z M465.148,108.553h-4.535
			c0.02,0.691,0.209,1.226,0.569,1.605c0.359,0.375,0.861,0.563,1.506,0.563c0.726,0,1.392-0.233,1.998-0.698v1.026
			c-0.571,0.402-1.327,0.603-2.268,0.603c-0.938,0-1.67-0.297-2.197-0.89c-0.524-0.594-0.785-1.418-0.785-2.473
			c0-0.992,0.287-1.81,0.861-2.455c0.578-0.645,1.295-0.967,2.15-0.967c0.848,0,1.51,0.274,1.987,0.821
			c0.476,0.542,0.714,1.304,0.714,2.285V108.553z M464,107.633c-0.004-0.586-0.143-1.039-0.416-1.36
			c-0.273-0.32-0.658-0.48-1.154-0.48c-0.457,0-0.854,0.17-1.19,0.51c-0.332,0.34-0.541,0.783-0.627,1.33H464z M471.154,111.207
			c-0.496,0.297-1.093,0.445-1.793,0.445c-0.937,0-1.691-0.3-2.261-0.902c-0.571-0.602-0.856-1.381-0.856-2.338
			c0-1.062,0.307-1.918,0.92-2.566c0.617-0.653,1.441-0.979,2.473-0.979c0.593,0,1.101,0.106,1.523,0.317v1.136
			c-0.457-0.336-0.965-0.504-1.523-0.504c-0.657,0-1.192,0.229-1.606,0.686c-0.41,0.453-0.615,1.059-0.615,1.816
			c0,0.746,0.193,1.33,0.58,1.752c0.391,0.422,0.916,0.633,1.576,0.633c0.559,0,1.086-0.183,1.582-0.551V111.207z M475.812,111.436
			c-0.25,0.136-0.587,0.205-1.013,0.205c-1.16,0-1.74-0.643-1.74-1.928v-3.744h-1.114v-0.949h1.114v-1.559l1.142-0.363v1.922h1.611
			v0.949h-1.611v3.539c0,0.426,0.072,0.73,0.217,0.914c0.144,0.183,0.385,0.275,0.721,0.275c0.257,0,0.482-0.072,0.673-0.217
			V111.436z M483.84,111.436c-0.25,0.136-0.588,0.205-1.014,0.205c-1.16,0-1.74-0.643-1.74-1.928v-3.744h-1.113v-0.949h1.113v-1.559
			l1.143-0.363v1.922h1.611v0.949h-1.611v3.539c0,0.426,0.072,0.73,0.216,0.914c0.145,0.183,0.385,0.275,0.721,0.275
			c0.258,0,0.482-0.072,0.674-0.217V111.436z M484.771,108.33c0-1.07,0.299-1.914,0.897-2.531c0.598-0.621,1.408-0.932,2.432-0.932
			c0.972,0,1.734,0.299,2.285,0.897c0.554,0.593,0.832,1.416,0.832,2.466c0,1.024-0.295,1.85-0.885,2.479s-1.381,0.943-2.373,0.943
			c-0.969,0-1.742-0.304-2.32-0.914C485.061,110.129,484.771,109.326,484.771,108.33z M485.943,108.295
			c0,0.746,0.188,1.334,0.563,1.764c0.379,0.429,0.887,0.644,1.523,0.644c0.657,0,1.157-0.209,1.5-0.627
			c0.344-0.422,0.516-1.025,0.516-1.81c0-0.789-0.172-1.395-0.516-1.817c-0.343-0.422-0.843-0.633-1.5-0.633
			c-0.644,0-1.154,0.221-1.529,0.663C486.129,106.92,485.943,107.525,485.943,108.295z M496.537,105.471
			c0.645-0.403,1.389-0.604,2.233-0.604c1.562,0,2.343,0.821,2.343,2.461v4.172h-1.136v-1.002h-0.03
			c-0.449,0.77-1.111,1.154-1.986,1.154c-0.629,0-1.129-0.17-1.5-0.509c-0.371-0.34-0.557-0.799-0.557-1.377
			c0-1.211,0.717-1.916,2.151-2.116l1.922-0.269c0-1.059-0.438-1.588-1.313-1.588c-0.777,0-1.486,0.262-2.127,0.785V105.471z
			 M498.459,108.453c-0.531,0.07-0.898,0.203-1.102,0.399c-0.199,0.195-0.298,0.468-0.298,0.82c0,0.308,0.109,0.56,0.328,0.756
			c0.218,0.195,0.508,0.293,0.867,0.293c0.5,0,0.912-0.176,1.236-0.528c0.324-0.351,0.487-0.793,0.487-1.324v-0.621L498.459,108.453
			z M513.652,111.5h-1.172v-4.09h-4.593v4.09h-1.172v-9.076h1.172v3.943h4.593v-3.943h1.172V111.5z M518.041,103.414h-0.873v7.096
			h0.873v0.99h-2.918v-0.99h0.873v-7.096h-0.873v-0.99h2.918V103.414z M519.523,111.5v-9.076h2.59c1.375,0,2.518,0.4,3.428,1.201
			c0.914,0.801,1.371,1.875,1.371,3.223c0,1.406-0.457,2.533-1.371,3.381c-0.91,0.847-2.084,1.271-3.521,1.271H519.523z
			 M520.695,103.467v6.996h1.319c1.152,0,2.05-0.315,2.695-0.943c0.648-0.629,0.973-1.51,0.973-2.643
			c0-1.133-0.332-1.984-0.996-2.555c-0.665-0.57-1.538-0.855-2.62-0.855H520.695z M537.693,111.5h-1.148v-1.078h-0.024
			c-0.472,0.82-1.207,1.23-2.203,1.23c-0.82,0-1.472-0.291-1.957-0.873c-0.484-0.586-0.726-1.375-0.726-2.367
			c0-1.07,0.273-1.928,0.82-2.572c0.547-0.649,1.262-0.973,2.145-0.973c0.882,0,1.523,0.344,1.921,1.031h0.024v-3.99h1.148V111.5z
			 M536.551,107.645c0-0.52-0.172-0.954-0.516-1.301c-0.34-0.352-0.76-0.528-1.26-0.528c-0.609,0-1.089,0.229-1.441,0.686
			c-0.352,0.453-0.527,1.072-0.527,1.857c0,0.723,0.168,1.295,0.504,1.717c0.339,0.418,0.791,0.627,1.353,0.627
			c0.555,0,1.008-0.205,1.359-0.615c0.352-0.414,0.528-0.928,0.528-1.541V107.645z M545.023,108.553h-4.535
			c0.02,0.691,0.209,1.226,0.569,1.605c0.359,0.375,0.861,0.563,1.505,0.563c0.727,0,1.393-0.233,1.999-0.698v1.026
			c-0.571,0.402-1.327,0.603-2.268,0.603c-0.938,0-1.67-0.297-2.197-0.89c-0.524-0.594-0.785-1.418-0.785-2.473
			c0-0.992,0.287-1.81,0.861-2.455c0.578-0.645,1.295-0.967,2.15-0.967c0.848,0,1.51,0.274,1.987,0.821
			c0.476,0.542,0.714,1.304,0.714,2.285V108.553z M543.875,107.633c-0.004-0.586-0.143-1.039-0.416-1.36
			c-0.273-0.32-0.658-0.48-1.154-0.48c-0.457,0-0.854,0.17-1.19,0.51c-0.332,0.34-0.541,0.783-0.627,1.33H543.875z M551.773,105.02
			l-2.566,6.48h-1.16l-2.438-6.48h1.254l1.582,4.628c0.129,0.372,0.205,0.682,0.229,0.932h0.029
			c0.039-0.328,0.108-0.631,0.205-0.908l1.658-4.652H551.773z M552.717,102.734c0-0.203,0.068-0.373,0.205-0.509
			c0.14-0.141,0.312-0.211,0.516-0.211c0.207,0,0.38,0.068,0.521,0.205c0.145,0.136,0.217,0.308,0.217,0.515
			c0,0.204-0.072,0.373-0.217,0.51c-0.141,0.133-0.314,0.199-0.521,0.199c-0.208,0-0.379-0.066-0.516-0.199
			C552.785,103.107,552.717,102.938,552.717,102.734z M552.852,111.5v-6.48H554v6.48H552.852z M560.533,111.207
			c-0.496,0.297-1.094,0.445-1.793,0.445c-0.937,0-1.691-0.3-2.261-0.902c-0.571-0.602-0.856-1.381-0.856-2.338
			c0-1.062,0.307-1.918,0.92-2.566c0.617-0.653,1.441-0.979,2.473-0.979c0.593,0,1.101,0.106,1.523,0.317v1.136
			c-0.457-0.336-0.965-0.504-1.523-0.504c-0.657,0-1.192,0.229-1.606,0.686c-0.41,0.453-0.615,1.059-0.615,1.816
			c0,0.746,0.193,1.33,0.58,1.752c0.391,0.422,0.916,0.633,1.576,0.633c0.559,0,1.086-0.183,1.582-0.551V111.207z M567.359,108.553
			h-4.535c0.02,0.691,0.209,1.226,0.569,1.605c0.359,0.375,0.861,0.563,1.505,0.563c0.727,0,1.393-0.233,1.998-0.698v1.026
			c-0.57,0.402-1.326,0.603-2.267,0.603c-0.938,0-1.67-0.297-2.197-0.89c-0.524-0.594-0.786-1.418-0.786-2.473
			c0-0.992,0.288-1.81,0.862-2.455c0.578-0.645,1.295-0.967,2.15-0.967c0.848,0,1.51,0.274,1.987,0.821
			c0.476,0.542,0.714,1.304,0.714,2.285V108.553z M566.211,107.633c-0.004-0.586-0.143-1.039-0.416-1.36
			c-0.274-0.32-0.658-0.48-1.154-0.48c-0.457,0-0.854,0.17-1.19,0.51c-0.332,0.34-0.541,0.783-0.627,1.33H566.211z"/>
		<path class="st1" d="M258,123h334c1.933,0,3.5,1.567,3.5,3.5v156c0,1.933-1.567,3.5-3.5,3.5H258c-1.933,0-3.5-1.567-3.5-3.5v-156
			C254.5,124.567,256.067,123,258,123z"/>
		<path class="st10" d="M258,123h334c1.933,0,3.5,1.567,3.5,3.5v156c0,1.933-1.567,3.5-3.5,3.5H258c-1.933,0-3.5-1.567-3.5-3.5v-156
			C254.5,124.567,256.067,123,258,123z"/>
		<path class="st2" d="M255,126.5c0-1.657,1.343-3,3-3h335c1.657,0,3,1.343,3,3v29H255V126.5z"/>
		<path class="st11" d="M272.049,144.5v-9.076h3.135c3.222,0,4.834,1.474,4.834,4.424c0,1.402-0.452,2.529-1.354,3.381
			c-0.902,0.847-2.066,1.271-3.492,1.271H272.049z M273.982,137.006v5.912h1.055c0.918,0,1.639-0.273,2.162-0.82
			c0.524-0.547,0.785-1.287,0.785-2.221c0-0.902-0.273-1.606-0.82-2.109c-0.547-0.508-1.258-0.762-2.133-0.762H273.982z
			 M287.119,141.793h-4.265c0.066,1.004,0.671,1.506,1.816,1.506c0.715,0,1.346-0.176,1.892-0.528v1.389
			c-0.589,0.332-1.363,0.498-2.32,0.498c-1.031,0-1.834-0.291-2.408-0.873c-0.57-0.582-0.855-1.392-0.855-2.431
			c0-1.036,0.304-1.875,0.914-2.52c0.609-0.648,1.375-0.973,2.296-0.973c0.918,0,1.635,0.28,2.151,0.838
			c0.519,0.555,0.779,1.319,0.779,2.291V141.793z M285.355,140.609c0-0.968-0.392-1.453-1.177-1.453
			c-0.324,0-0.612,0.133-0.862,0.399c-0.25,0.265-0.406,0.617-0.468,1.054H285.355z M294.402,138.02l-2.431,6.48h-2.139l-2.314-6.48
			h2.027l1.189,4.078c0.129,0.445,0.202,0.818,0.217,1.119h0.029c0.032-0.309,0.108-0.67,0.229-1.084l1.213-4.113H294.402z
			 M295.105,135.928c0-0.289,0.102-0.524,0.305-0.703c0.207-0.184,0.471-0.276,0.791-0.276c0.328,0,0.594,0.094,0.797,0.281
			c0.203,0.184,0.305,0.416,0.305,0.698c0,0.285-0.104,0.523-0.311,0.715c-0.207,0.187-0.471,0.281-0.791,0.281
			c-0.316,0-0.578-0.096-0.785-0.287C295.209,136.445,295.105,136.209,295.105,135.928z M295.246,144.5v-6.48h1.887v6.48H295.246z
			 M303.684,144.26c-0.454,0.265-1.098,0.398-1.934,0.398c-0.988,0-1.787-0.301-2.396-0.902c-0.61-0.602-0.915-1.381-0.915-2.338
			c0-1.102,0.329-1.969,0.985-2.602c0.656-0.636,1.531-0.955,2.625-0.955c0.738,0,1.285,0.102,1.64,0.305v1.623
			c-0.433-0.316-0.906-0.475-1.418-0.475c-0.578,0-1.042,0.176-1.394,0.528c-0.348,0.351-0.522,0.834-0.522,1.447
			c0,0.594,0.166,1.063,0.499,1.406c0.332,0.34,0.783,0.51,1.353,0.51c0.504,0,0.996-0.16,1.477-0.48V144.26z M310.779,141.793
			h-4.265c0.066,1.004,0.672,1.506,1.816,1.506c0.715,0,1.346-0.176,1.893-0.528v1.389c-0.59,0.332-1.364,0.498-2.321,0.498
			c-1.031,0-1.834-0.291-2.408-0.873c-0.57-0.582-0.855-1.392-0.855-2.431c0-1.036,0.304-1.875,0.914-2.52
			c0.609-0.648,1.375-0.973,2.297-0.973c0.918,0,1.634,0.28,2.15,0.838c0.52,0.555,0.779,1.319,0.779,2.291V141.793z
			 M309.016,140.609c0-0.968-0.393-1.453-1.178-1.453c-0.324,0-0.611,0.133-0.861,0.399c-0.25,0.265-0.407,0.617-0.469,1.054
			H309.016z M323.84,144.5h-1.981l-3.843-5.871c-0.2-0.305-0.344-0.551-0.434-0.738h-0.029c0.035,0.312,0.052,0.795,0.052,1.447
			v5.162h-1.834v-9.076h2.11l3.703,5.707c0.246,0.379,0.396,0.619,0.451,0.721h0.029c-0.039-0.219-0.058-0.637-0.058-1.254v-5.174
			h1.834V144.5z M325.926,138.412c0.293-0.164,0.683-0.297,1.172-0.398c0.492-0.102,0.912-0.153,1.259-0.153
			c1.813,0,2.719,0.909,2.719,2.725v3.914h-1.799v-0.943h-0.023c-0.442,0.734-1.088,1.101-1.94,1.101
			c-0.613,0-1.105-0.174-1.476-0.521c-0.367-0.352-0.551-0.828-0.551-1.43c0-1.242,0.74-1.965,2.221-2.168l1.781-0.24
			c0-0.754-0.393-1.131-1.178-1.131c-0.773,0-1.502,0.234-2.185,0.703V138.412z M328.064,141.564
			c-0.683,0.09-1.025,0.399-1.025,0.926c0,0.242,0.082,0.438,0.246,0.586c0.168,0.149,0.393,0.223,0.674,0.223
			c0.387,0,0.705-0.137,0.955-0.41c0.25-0.274,0.375-0.614,0.375-1.02v-0.463L328.064,141.564z M342.871,144.5h-1.887v-3.697
			c0-0.992-0.361-1.489-1.084-1.489c-0.336,0-0.615,0.151-0.838,0.452c-0.222,0.3-0.333,0.668-0.333,1.101v3.633h-1.887v-3.744
			c0-0.961-0.358-1.442-1.072-1.442c-0.356,0-0.641,0.145-0.856,0.434c-0.211,0.285-0.316,0.664-0.316,1.137v3.615h-1.893v-6.48
			h1.893v1.013h0.023c0.227-0.371,0.527-0.658,0.902-0.861c0.375-0.207,0.77-0.311,1.184-0.311c0.91,0,1.533,0.409,1.869,1.225
			c0.5-0.816,1.227-1.225,2.18-1.225c1.41,0,2.115,0.871,2.115,2.614V144.5z M350.248,141.793h-4.266
			c0.067,1.004,0.672,1.506,1.817,1.506c0.715,0,1.346-0.176,1.892-0.528v1.389c-0.589,0.332-1.363,0.498-2.32,0.498
			c-1.031,0-1.834-0.291-2.408-0.873c-0.57-0.582-0.856-1.392-0.856-2.431c0-1.036,0.305-1.875,0.914-2.52
			c0.61-0.648,1.375-0.973,2.297-0.973c0.918,0,1.635,0.28,2.151,0.838c0.519,0.555,0.779,1.319,0.779,2.291V141.793z
			 M348.484,140.609c0-0.968-0.392-1.453-1.177-1.453c-0.325,0-0.612,0.133-0.862,0.399c-0.25,0.265-0.406,0.617-0.468,1.054
			H348.484z"/>
		<path class="st1" d="M437.099,294.912h39c8.885,0,16.087,7.203,16.087,16.087l0,0c0,8.885-7.203,16.087-16.087,16.087h-39
			c-8.885,0-16.087-7.203-16.087-16.087l0,0C421.012,302.115,428.215,294.912,437.099,294.912z"/>
		<path class="st12" d="M437.099,294.912h39c8.885,0,16.087,7.203,16.087,16.087l0,0c0,8.885-7.203,16.087-16.087,16.087h-39
			c-8.885,0-16.087-7.203-16.087-16.087l0,0C421.012,302.115,428.215,294.912,437.099,294.912z"/>
		<path class="st11" d="M444.482,315.125c-0.668,0.352-1.505,0.527-2.513,0.527c-1.301,0-2.34-0.412-3.117-1.236
			c-0.778-0.828-1.166-1.922-1.166-3.281c0-1.461,0.437-2.637,1.312-3.528c0.875-0.89,1.986-1.336,3.334-1.336
			c0.867,0,1.584,0.124,2.15,0.37v1.224c-0.648-0.359-1.361-0.539-2.138-0.539c-1.012,0-1.836,0.338-2.473,1.014
			c-0.637,0.672-0.955,1.58-0.955,2.724c0,1.086,0.297,1.95,0.891,2.59c0.593,0.637,1.371,0.955,2.332,0.955
			c0.898,0,1.679-0.203,2.343-0.609V315.125z M446.305,309.471c0.644-0.403,1.388-0.604,2.232-0.604
			c1.563,0,2.344,0.821,2.344,2.461v4.172h-1.137v-1.002h-0.029c-0.449,0.77-1.111,1.154-1.986,1.154c-0.629,0-1.129-0.17-1.5-0.509
			c-0.372-0.34-0.557-0.799-0.557-1.377c0-1.211,0.717-1.916,2.15-2.116l1.922-0.269c0-1.059-0.437-1.588-1.312-1.588
			c-0.778,0-1.487,0.262-2.127,0.785V309.471z M448.227,312.453c-0.532,0.07-0.899,0.203-1.102,0.399
			c-0.199,0.195-0.299,0.468-0.299,0.82c0,0.308,0.11,0.56,0.328,0.756c0.219,0.195,0.508,0.293,0.867,0.293
			c0.5,0,0.913-0.176,1.237-0.528c0.324-0.351,0.486-0.793,0.486-1.324v-0.621L448.227,312.453z M458.264,315.5h-1.143v-3.686
			c0-1.332-0.486-1.998-1.459-1.998c-0.504,0-0.918,0.188-1.242,0.563c-0.324,0.375-0.486,0.85-0.486,1.424v3.697h-1.149v-6.48
			h1.149v1.072h0.023c0.488-0.817,1.197-1.225,2.127-1.225c0.711,0,1.252,0.229,1.623,0.686c0.371,0.453,0.557,1.115,0.557,1.986
			V315.5z M464.656,315.207c-0.496,0.297-1.094,0.445-1.793,0.445c-0.937,0-1.691-0.3-2.261-0.902
			c-0.571-0.602-0.856-1.381-0.856-2.338c0-1.062,0.307-1.918,0.92-2.566c0.617-0.653,1.441-0.979,2.473-0.979
			c0.593,0,1.101,0.106,1.523,0.317v1.136c-0.457-0.336-0.965-0.504-1.523-0.504c-0.657,0-1.192,0.229-1.606,0.686
			c-0.41,0.453-0.615,1.059-0.615,1.816c0,0.746,0.193,1.33,0.58,1.752c0.391,0.422,0.916,0.633,1.576,0.633
			c0.559,0,1.086-0.183,1.582-0.551V315.207z M471.482,312.553h-4.535c0.02,0.691,0.209,1.226,0.569,1.605
			c0.359,0.375,0.861,0.563,1.505,0.563c0.727,0,1.393-0.233,1.999-0.698v1.026c-0.571,0.402-1.327,0.603-2.268,0.603
			c-0.938,0-1.67-0.297-2.197-0.89c-0.524-0.594-0.785-1.418-0.785-2.473c0-0.992,0.287-1.81,0.861-2.455
			c0.578-0.645,1.295-0.967,2.15-0.967c0.848,0,1.51,0.274,1.987,0.821c0.476,0.542,0.714,1.304,0.714,2.285V312.553z
			 M470.334,311.633c-0.004-0.586-0.143-1.039-0.416-1.36c-0.273-0.32-0.658-0.48-1.154-0.48c-0.457,0-0.854,0.17-1.19,0.51
			c-0.332,0.34-0.541,0.783-0.627,1.33H470.334z M473.006,315.5v-9.592h1.148v9.592H473.006z"/>
		<path class="st13" d="M517.1,294.5h62.4c9.113,0,16.5,7.387,16.5,16.5l0,0c0,9.113-7.387,16.5-16.5,16.5h-62.4
			c-9.113,0-16.5-7.387-16.5-16.5l0,0C500.6,301.887,507.987,294.5,517.1,294.5z"/>
		<path class="st11" d="M521.323,315.172c-0.66,0.324-1.521,0.486-2.584,0.486c-1.367,0-2.453-0.408-3.258-1.224
			c-0.8-0.821-1.201-1.913-1.201-3.276c0-1.433,0.448-2.605,1.342-3.515c0.899-0.914,2.057-1.372,3.475-1.372
			c0.886,0,1.629,0.116,2.226,0.346v1.869c-0.613-0.359-1.308-0.539-2.086-0.539c-0.886,0-1.595,0.283-2.127,0.85
			c-0.531,0.566-0.797,1.307-0.797,2.221c0,0.89,0.252,1.607,0.756,2.15c0.504,0.543,1.186,0.814,2.045,0.814
			c0.809,0,1.545-0.195,2.209-0.586V315.172z M522.36,312.289c0-1.066,0.319-1.904,0.955-2.514c0.641-0.609,1.5-0.914,2.579-0.914
			c1.043,0,1.871,0.301,2.484,0.903c0.613,0.597,0.92,1.402,0.92,2.414c0,1.062-0.315,1.908-0.944,2.537
			c-0.628,0.629-1.48,0.943-2.554,0.943c-1.055,0-1.893-0.301-2.514-0.902C522.669,314.15,522.36,313.328,522.36,312.289z
			 M524.276,312.266c0,1.293,0.528,1.939,1.582,1.939c1.012,0,1.518-0.664,1.518-1.992c0-1.266-0.51-1.899-1.529-1.899
			c-0.496,0-0.883,0.17-1.16,0.51C524.413,311.164,524.276,311.645,524.276,312.266z M536.792,315.5h-1.881v-3.615
			c0-1.047-0.377-1.571-1.131-1.571c-0.359,0-0.658,0.141-0.896,0.422c-0.238,0.278-0.358,0.633-0.358,1.067v3.697h-1.892v-6.48
			h1.892v1.031h0.024c0.472-0.793,1.168-1.19,2.086-1.19c1.437,0,2.156,0.891,2.156,2.672V315.5z M544.573,315.5h-1.881v-3.615
			c0-1.047-0.377-1.571-1.13-1.571c-0.36,0-0.659,0.141-0.897,0.422c-0.238,0.278-0.357,0.633-0.357,1.067v3.697h-1.893v-6.48h1.893
			v1.031h0.023c0.473-0.793,1.168-1.19,2.086-1.19c1.437,0,2.156,0.891,2.156,2.672V315.5z M551.95,312.793h-4.265
			c0.066,1.004,0.671,1.506,1.816,1.506c0.715,0,1.346-0.176,1.893-0.528v1.389c-0.59,0.332-1.364,0.498-2.321,0.498
			c-1.031,0-1.834-0.291-2.408-0.873c-0.57-0.582-0.855-1.392-0.855-2.431c0-1.036,0.304-1.875,0.914-2.52
			c0.609-0.648,1.375-0.973,2.297-0.973c0.917,0,1.634,0.28,2.15,0.838c0.519,0.555,0.779,1.319,0.779,2.291V312.793z
			 M550.187,311.609c0-0.968-0.393-1.453-1.178-1.453c-0.324,0-0.612,0.133-0.862,0.399c-0.25,0.265-0.406,0.617-0.468,1.054
			H550.187z M558.038,315.26c-0.453,0.265-1.098,0.398-1.934,0.398c-0.988,0-1.787-0.301-2.396-0.902
			c-0.609-0.602-0.914-1.381-0.914-2.338c0-1.102,0.328-1.969,0.984-2.602c0.657-0.636,1.532-0.955,2.625-0.955
			c0.739,0,1.285,0.102,1.641,0.305v1.623c-0.434-0.316-0.906-0.475-1.418-0.475c-0.578,0-1.043,0.176-1.395,0.528
			c-0.347,0.351-0.521,0.834-0.521,1.447c0,0.594,0.166,1.063,0.498,1.406c0.332,0.34,0.783,0.51,1.354,0.51
			c0.503,0,0.996-0.16,1.476-0.48V315.26z M563.194,315.424c-0.285,0.156-0.716,0.234-1.295,0.234c-1.375,0-2.062-0.722-2.062-2.168
			v-3.058h-1.066v-1.412h1.066v-1.424l1.881-0.539v1.963h1.476v1.412h-1.476v2.73c0,0.692,0.273,1.037,0.82,1.037
			c0.211,0,0.43-0.062,0.656-0.187V315.424z M564.179,306.928c0-0.289,0.101-0.524,0.304-0.703c0.207-0.184,0.471-0.276,0.791-0.276
			c0.329,0,0.594,0.094,0.797,0.281c0.203,0.184,0.305,0.416,0.305,0.698c0,0.285-0.104,0.523-0.311,0.715
			c-0.207,0.187-0.47,0.281-0.791,0.281c-0.316,0-0.578-0.096-0.785-0.287C564.282,307.445,564.179,307.209,564.179,306.928z
			 M564.319,315.5v-6.48h1.887v6.48H564.319z M567.513,312.289c0-1.066,0.318-1.904,0.955-2.514c0.64-0.609,1.5-0.914,2.578-0.914
			c1.043,0,1.871,0.301,2.484,0.903c0.614,0.597,0.92,1.402,0.92,2.414c0,1.062-0.314,1.908-0.943,2.537
			c-0.629,0.629-1.481,0.943-2.555,0.943c-1.055,0-1.892-0.301-2.514-0.902C567.821,314.15,567.513,313.328,567.513,312.289z
			 M569.429,312.266c0,1.293,0.527,1.939,1.582,1.939c1.011,0,1.517-0.664,1.517-1.992c0-1.266-0.509-1.899-1.529-1.899
			c-0.496,0-0.883,0.17-1.16,0.51C569.565,311.164,569.429,311.645,569.429,312.266z M581.944,315.5h-1.881v-3.615
			c0-1.047-0.376-1.571-1.13-1.571c-0.36,0-0.659,0.141-0.897,0.422c-0.238,0.278-0.357,0.633-0.357,1.067v3.697h-1.893v-6.48h1.893
			v1.031h0.023c0.473-0.793,1.168-1.19,2.086-1.19c1.438,0,2.156,0.891,2.156,2.672V315.5z"/>
		<path class="st8" d="M571.247,320.238c0.112-0.767,1.016-1.121,1.619-0.634l10.073,8.143c0.753,0.609,0.287,1.826-0.68,1.777
			l-3.495-0.179l2.825,6.246c0.227,0.502,0.005,1.094-0.498,1.322l-3.645,1.657c-0.516,0.235-1.124-0.007-1.339-0.532l-2.682-6.562
			l-2.329,2.218c-0.688,0.656-1.816,0.073-1.679-0.868L571.247,320.238z"/>
		<path class="st11" d="M572.866,319.604l0.314-0.389l0,0L572.866,319.604z M571.247,320.238l-0.494-0.072L571.247,320.238z
			 M582.939,327.747l-0.315,0.389L582.939,327.747z M582.259,329.524l0.026-0.5L582.259,329.524z M578.764,329.345l0.025-0.499
			c-0.174-0.009-0.34,0.073-0.439,0.217c-0.098,0.144-0.114,0.329-0.042,0.488L578.764,329.345z M581.589,335.591l0.455-0.207
			L581.589,335.591z M581.091,336.913l-0.206-0.455L581.091,336.913z M577.446,338.57l0.207,0.455l0,0L577.446,338.57z
			 M576.107,338.038l0.463-0.189L576.107,338.038z M573.425,331.476l0.463-0.189c-0.063-0.153-0.197-0.265-0.358-0.3
			c-0.162-0.034-0.33,0.013-0.45,0.127L573.425,331.476z M571.096,333.694l-0.345-0.362l0,0L571.096,333.694z M569.417,332.826
			l0.494,0.072L569.417,332.826z M573.18,319.215c-0.904-0.731-2.26-0.2-2.427,0.951l0.989,0.144
			c0.056-0.384,0.508-0.561,0.809-0.317L573.18,319.215z M583.253,327.358l-10.073-8.143l-0.629,0.778l10.073,8.143L583.253,327.358
			z M582.234,330.023c1.45,0.074,2.149-1.751,1.019-2.665l-0.629,0.778c0.377,0.304,0.144,0.913-0.339,0.888L582.234,330.023z
			 M578.738,329.844l3.496,0.179l0.051-0.999l-3.496-0.178L578.738,329.844z M578.308,329.551l2.825,6.246l0.911-0.413l-2.825-6.245
			L578.308,329.551z M581.133,335.797c0.114,0.251,0.003,0.547-0.248,0.661l0.413,0.91c0.754-0.342,1.087-1.23,0.746-1.984
			L581.133,335.797z M580.885,336.458l-3.646,1.657l0.414,0.91l3.645-1.657L580.885,336.458z M577.239,338.115
			c-0.258,0.117-0.562-0.004-0.669-0.266l-0.926,0.378c0.322,0.788,1.234,1.15,2.009,0.798L577.239,338.115z M576.57,337.849
			l-2.682-6.562l-0.926,0.378l2.682,6.562L576.57,337.849z M571.441,334.057l2.329-2.219l-0.69-0.724l-2.329,2.218L571.441,334.057z
			 M568.922,332.754c-0.205,1.411,1.487,2.285,2.519,1.303l-0.69-0.725c-0.344,0.328-0.908,0.036-0.84-0.434L568.922,332.754z
			 M570.753,320.166l-1.831,12.588l0.989,0.144l1.831-12.588L570.753,320.166z"/>
		<path class="st8" d="M357.842,134.357c0.112-0.767,1.016-1.121,1.618-0.634l10.073,8.144c0.754,0.609,0.288,1.825-0.679,1.776
			l-3.496-0.179l2.825,6.246c0.228,0.503,0.005,1.094-0.497,1.323l-3.645,1.656c-0.516,0.235-1.125-0.006-1.339-0.532l-2.682-6.561
			l-2.329,2.218c-0.688,0.655-1.816,0.072-1.68-0.868L357.842,134.357z"/>
		<path class="st11" d="M359.46,133.723l0.315-0.388l0,0L359.46,133.723z M357.842,134.357l-0.495-0.072L357.842,134.357z
			 M369.533,141.867l-0.314,0.389L369.533,141.867z M368.854,143.643l0.025-0.499L368.854,143.643z M365.358,143.464l0.026-0.499
			c-0.174-0.009-0.341,0.074-0.439,0.218c-0.098,0.144-0.114,0.329-0.042,0.488L365.358,143.464z M368.183,149.71l0.456-0.206
			L368.183,149.71z M367.686,151.033l-0.207-0.456L367.686,151.033z M364.041,152.689l0.207,0.456l0,0L364.041,152.689z
			 M362.702,152.157l0.462-0.189L362.702,152.157z M360.02,145.596l0.463-0.189c-0.063-0.153-0.197-0.266-0.359-0.3
			c-0.161-0.035-0.329,0.013-0.449,0.127L360.02,145.596z M357.691,147.814l-0.345-0.362l0,0L357.691,147.814z M356.011,146.946
			l0.495,0.072L356.011,146.946z M359.775,133.335c-0.904-0.731-2.26-0.2-2.428,0.95l0.99,0.144c0.056-0.383,0.508-0.56,0.809-0.317
			L359.775,133.335z M369.848,141.478l-10.073-8.143l-0.629,0.777l10.073,8.144L369.848,141.478z M368.828,144.142
			c1.451,0.075,2.15-1.751,1.02-2.664l-0.629,0.778c0.377,0.304,0.144,0.912-0.34,0.888L368.828,144.142z M365.333,143.964
			l3.495,0.178l0.051-0.998l-3.495-0.179L365.333,143.964z M364.903,143.671l2.825,6.245l0.911-0.412l-2.825-6.246L364.903,143.671z
			 M367.728,149.916c0.114,0.251,0.002,0.547-0.249,0.661l0.414,0.911c0.753-0.343,1.087-1.23,0.746-1.984L367.728,149.916z
			 M367.479,150.577l-3.645,1.657l0.414,0.911l3.645-1.657L367.479,150.577z M363.834,152.234c-0.258,0.118-0.562-0.003-0.67-0.266
			l-0.925,0.379c0.322,0.787,1.234,1.15,2.009,0.798L363.834,152.234z M363.164,151.968l-2.681-6.561l-0.926,0.378l2.682,6.562
			L363.164,151.968z M358.035,148.176l2.33-2.218l-0.69-0.724l-2.329,2.218L358.035,148.176z M355.517,146.874
			c-0.206,1.41,1.487,2.285,2.518,1.302l-0.689-0.724c-0.344,0.327-0.908,0.036-0.84-0.434L355.517,146.874z M357.347,134.285
			l-1.83,12.589l0.989,0.144l1.831-12.589L357.347,134.285z"/>
		<path class="st14" d="M295,159.5h213c2.209,0,4,1.791,4,4v16c0,2.209-1.791,4-4,4H295c-2.209,0-4-1.791-4-4v-16
			C291,161.291,292.791,159.5,295,159.5z"/>
		<path class="st11" d="M295.838,174.215c0.73,0.605,1.56,0.908,2.49,0.908c0.527,0,0.924-0.09,1.19-0.269
			c0.265-0.184,0.398-0.418,0.398-0.704c0-0.246-0.105-0.478-0.316-0.697c-0.211-0.219-0.768-0.515-1.67-0.891
			c-1.418-0.601-2.127-1.476-2.127-2.624c0-0.844,0.32-1.499,0.961-1.963c0.644-0.469,1.496-0.704,2.554-0.704
			c0.887,0,1.631,0.116,2.233,0.346v1.817c-0.61-0.414-1.322-0.622-2.139-0.622c-0.476,0-0.857,0.088-1.142,0.264
			c-0.286,0.172-0.428,0.404-0.428,0.697c0,0.235,0.097,0.452,0.293,0.651c0.195,0.195,0.677,0.461,1.447,0.797
			c0.902,0.386,1.522,0.795,1.857,1.224c0.34,0.43,0.51,0.942,0.51,1.535c0,0.872-0.308,1.536-0.926,1.993
			c-0.617,0.457-1.494,0.685-2.63,0.685c-1.039,0-1.891-0.168-2.555-0.504V174.215z M306.76,176.424
			c-0.285,0.156-0.717,0.234-1.295,0.234c-1.375,0-2.063-0.722-2.063-2.168v-3.058h-1.066v-1.412h1.066v-1.424l1.881-0.539v1.963
			h1.477v1.412h-1.477v2.73c0,0.692,0.274,1.037,0.821,1.037c0.21,0,0.429-0.062,0.656-0.187V176.424z M313.609,173.793h-4.265
			c0.066,1.004,0.672,1.506,1.816,1.506c0.715,0,1.346-0.176,1.893-0.528v1.389c-0.59,0.332-1.364,0.498-2.321,0.498
			c-1.031,0-1.834-0.291-2.408-0.873c-0.57-0.582-0.855-1.392-0.855-2.431c0-1.036,0.304-1.875,0.914-2.52
			c0.609-0.648,1.375-0.973,2.297-0.973c0.918,0,1.634,0.28,2.15,0.838c0.52,0.555,0.779,1.319,0.779,2.291V173.793z
			 M311.846,172.609c0-0.968-0.393-1.453-1.178-1.453c-0.324,0-0.611,0.133-0.861,0.399c-0.25,0.265-0.407,0.617-0.469,1.054
			H311.846z M316.732,175.721v3.761h-1.892v-9.462h1.892v0.99h0.024c0.496-0.766,1.197-1.149,2.103-1.149
			c0.825,0,1.469,0.289,1.934,0.868c0.465,0.574,0.697,1.357,0.697,2.349c0,1.082-0.269,1.949-0.808,2.602
			c-0.539,0.652-1.246,0.978-2.121,0.978c-0.793,0-1.395-0.312-1.805-0.937H316.732z M316.703,173.635
			c0,0.461,0.125,0.838,0.375,1.131s0.574,0.439,0.973,0.439c0.472,0,0.84-0.184,1.101-0.551c0.266-0.367,0.399-0.886,0.399-1.558
			c0-1.188-0.463-1.782-1.389-1.782c-0.43,0-0.781,0.165-1.055,0.493c-0.269,0.328-0.404,0.75-0.404,1.265V173.635z M332.289,176.5
			h-5.666v-1.506h1.893v-5.806l-1.946,0.439v-1.553l3.838-0.808v7.728h1.881V176.5z M335.611,174.924l-0.943,3.187h-1.465
			l0.656-3.187H335.611z M340.65,174.76c0.649,0.394,1.284,0.592,1.905,0.592c0.781,0,1.172-0.209,1.172-0.627
			c0-0.297-0.323-0.545-0.967-0.745c-0.805-0.25-1.358-0.527-1.658-0.832c-0.301-0.308-0.452-0.724-0.452-1.248
			c0-0.636,0.258-1.134,0.774-1.494c0.515-0.363,1.191-0.545,2.027-0.545c0.594,0,1.166,0.088,1.717,0.264v1.488
			c-0.504-0.297-1.059-0.445-1.664-0.445c-0.301,0-0.543,0.055-0.727,0.164c-0.183,0.106-0.275,0.246-0.275,0.422
			c0,0.297,0.273,0.537,0.82,0.721c0.586,0.195,1.026,0.373,1.319,0.533c0.297,0.16,0.521,0.371,0.673,0.633
			c0.157,0.261,0.235,0.564,0.235,0.908c0,0.668-0.268,1.187-0.803,1.558c-0.535,0.368-1.25,0.551-2.144,0.551
			c-0.704,0-1.354-0.111-1.952-0.334V174.76z M352.504,173.793h-4.266c0.067,1.004,0.672,1.506,1.817,1.506
			c0.715,0,1.345-0.176,1.892-0.528v1.389c-0.59,0.332-1.363,0.498-2.32,0.498c-1.031,0-1.834-0.291-2.408-0.873
			c-0.571-0.582-0.856-1.392-0.856-2.431c0-1.036,0.305-1.875,0.914-2.52c0.61-0.648,1.375-0.973,2.297-0.973
			c0.918,0,1.635,0.28,2.151,0.838c0.519,0.555,0.779,1.319,0.779,2.291V173.793z M350.74,172.609c0-0.968-0.392-1.453-1.178-1.453
			c-0.324,0-0.611,0.133-0.861,0.399c-0.25,0.265-0.406,0.617-0.469,1.054H350.74z M353.705,176.5v-9.592h1.887v9.592H353.705z
			 M363.039,173.793h-4.266c0.067,1.004,0.672,1.506,1.817,1.506c0.715,0,1.346-0.176,1.892-0.528v1.389
			c-0.589,0.332-1.363,0.498-2.32,0.498c-1.031,0-1.834-0.291-2.408-0.873c-0.57-0.582-0.856-1.392-0.856-2.431
			c0-1.036,0.305-1.875,0.914-2.52c0.61-0.648,1.376-0.973,2.297-0.973c0.918,0,1.635,0.28,2.151,0.838
			c0.519,0.555,0.779,1.319,0.779,2.291V173.793z M361.275,172.609c0-0.968-0.392-1.453-1.177-1.453
			c-0.325,0-0.612,0.133-0.862,0.399c-0.25,0.265-0.406,0.617-0.468,1.054H361.275z M369.127,176.26
			c-0.453,0.265-1.098,0.398-1.934,0.398c-0.988,0-1.787-0.301-2.396-0.902c-0.609-0.602-0.914-1.381-0.914-2.338
			c0-1.102,0.328-1.969,0.984-2.602c0.656-0.636,1.531-0.955,2.625-0.955c0.738,0,1.285,0.102,1.641,0.305v1.623
			c-0.434-0.316-0.906-0.475-1.418-0.475c-0.578,0-1.043,0.176-1.395,0.528c-0.347,0.351-0.521,0.834-0.521,1.447
			c0,0.594,0.166,1.063,0.498,1.406c0.332,0.34,0.783,0.51,1.353,0.51c0.504,0,0.996-0.16,1.477-0.48V176.26z M374.283,176.424
			c-0.285,0.156-0.717,0.234-1.295,0.234c-1.375,0-2.062-0.722-2.062-2.168v-3.058h-1.067v-1.412h1.067v-1.424l1.881-0.539v1.963
			h1.476v1.412h-1.476v2.73c0,0.692,0.273,1.037,0.82,1.037c0.211,0,0.43-0.062,0.656-0.187V176.424z M382.826,176.424
			c-0.285,0.156-0.717,0.234-1.295,0.234c-1.375,0-2.062-0.722-2.062-2.168v-3.058h-1.067v-1.412h1.067v-1.424l1.881-0.539v1.963
			h1.476v1.412h-1.476v2.73c0,0.692,0.273,1.037,0.82,1.037c0.211,0,0.43-0.062,0.656-0.187V176.424z M390.104,176.5h-1.887v-3.691
			c0-0.997-0.363-1.495-1.09-1.495c-0.363,0-0.664,0.139-0.902,0.416c-0.235,0.278-0.352,0.637-0.352,1.079v3.691h-1.893v-9.592
			h1.893v4.084h0.023c0.497-0.754,1.165-1.131,2.004-1.131c1.469,0,2.204,0.887,2.204,2.66V176.5z M397.48,173.793h-4.265
			c0.066,1.004,0.672,1.506,1.816,1.506c0.715,0,1.346-0.176,1.893-0.528v1.389c-0.59,0.332-1.363,0.498-2.32,0.498
			c-1.032,0-1.834-0.291-2.409-0.873c-0.57-0.582-0.855-1.392-0.855-2.431c0-1.036,0.305-1.875,0.914-2.52
			c0.609-0.648,1.375-0.973,2.297-0.973c0.918,0,1.635,0.28,2.15,0.838c0.52,0.555,0.779,1.319,0.779,2.291V173.793z
			 M395.717,172.609c0-0.968-0.393-1.453-1.178-1.453c-0.324,0-0.611,0.133-0.861,0.399c-0.25,0.265-0.407,0.617-0.469,1.054
			H395.717z M408.537,176.5h-1.887v-0.914h-0.029c-0.457,0.715-1.133,1.072-2.027,1.072c-0.824,0-1.481-0.291-1.969-0.873
			c-0.484-0.582-0.727-1.375-0.727-2.379c0-1.062,0.272-1.918,0.815-2.566c0.547-0.652,1.26-0.979,2.139-0.979
			c0.843,0,1.433,0.305,1.769,0.914h0.029v-3.867h1.887V176.5z M406.68,172.832c0-0.437-0.133-0.799-0.399-1.084
			c-0.261-0.289-0.59-0.434-0.984-0.434c-0.461,0-0.824,0.184-1.09,0.551c-0.262,0.364-0.393,0.858-0.393,1.483
			c0,0.593,0.127,1.052,0.381,1.377c0.254,0.32,0.604,0.48,1.049,0.48c0.418,0,0.762-0.17,1.031-0.51
			c0.27-0.34,0.405-0.781,0.405-1.324V172.832z M416.02,173.793h-4.266c0.066,1.004,0.672,1.506,1.816,1.506
			c0.715,0,1.346-0.176,1.893-0.528v1.389c-0.59,0.332-1.363,0.498-2.32,0.498c-1.032,0-1.834-0.291-2.409-0.873
			c-0.57-0.582-0.855-1.392-0.855-2.431c0-1.036,0.305-1.875,0.914-2.52c0.609-0.648,1.375-0.973,2.297-0.973
			c0.918,0,1.635,0.28,2.15,0.838c0.52,0.555,0.78,1.319,0.78,2.291V173.793z M414.256,172.609c0-0.968-0.393-1.453-1.178-1.453
			c-0.324,0-0.611,0.133-0.861,0.399c-0.25,0.265-0.406,0.617-0.469,1.054H414.256z M423.303,170.02l-2.432,6.48h-2.139l-2.314-6.48
			h2.027l1.19,4.078c0.129,0.445,0.201,0.818,0.217,1.119h0.029c0.031-0.309,0.107-0.67,0.228-1.084l1.213-4.113H423.303z
			 M424.006,167.928c0-0.289,0.101-0.524,0.305-0.703c0.207-0.184,0.47-0.276,0.791-0.276c0.328,0,0.593,0.094,0.796,0.281
			c0.204,0.184,0.305,0.416,0.305,0.698c0,0.285-0.103,0.523-0.31,0.715c-0.207,0.187-0.471,0.281-0.791,0.281
			c-0.317,0-0.579-0.096-0.786-0.287C424.109,168.445,424.006,168.209,424.006,167.928z M424.146,176.5v-6.48h1.887v6.48H424.146z
			 M432.584,176.26c-0.453,0.265-1.098,0.398-1.934,0.398c-0.988,0-1.787-0.301-2.396-0.902c-0.609-0.602-0.914-1.381-0.914-2.338
			c0-1.102,0.328-1.969,0.984-2.602c0.656-0.636,1.531-0.955,2.625-0.955c0.739,0,1.285,0.102,1.641,0.305v1.623
			c-0.434-0.316-0.906-0.475-1.418-0.475c-0.578,0-1.043,0.176-1.395,0.528c-0.347,0.351-0.521,0.834-0.521,1.447
			c0,0.594,0.166,1.063,0.498,1.406c0.332,0.34,0.783,0.51,1.353,0.51c0.504,0,0.997-0.16,1.477-0.48V176.26z M439.68,173.793
			h-4.266c0.066,1.004,0.672,1.506,1.816,1.506c0.715,0,1.346-0.176,1.893-0.528v1.389c-0.59,0.332-1.363,0.498-2.32,0.498
			c-1.032,0-1.834-0.291-2.408-0.873c-0.571-0.582-0.856-1.392-0.856-2.431c0-1.036,0.305-1.875,0.914-2.52
			c0.609-0.648,1.375-0.973,2.297-0.973c0.918,0,1.635,0.28,2.15,0.838c0.52,0.555,0.78,1.319,0.78,2.291V173.793z M437.916,172.609
			c0-0.968-0.393-1.453-1.178-1.453c-0.324,0-0.611,0.133-0.861,0.399c-0.25,0.265-0.406,0.617-0.469,1.054H437.916z
			 M448.299,176.424c-0.285,0.156-0.717,0.234-1.295,0.234c-1.375,0-2.063-0.722-2.063-2.168v-3.058h-1.066v-1.412h1.066v-1.424
			l1.881-0.539v1.963h1.477v1.412h-1.477v2.73c0,0.692,0.274,1.037,0.821,1.037c0.211,0,0.429-0.062,0.656-0.187V176.424z
			 M449.008,173.289c0-1.066,0.318-1.904,0.955-2.514c0.641-0.609,1.5-0.914,2.578-0.914c1.043,0,1.871,0.301,2.484,0.903
			c0.614,0.597,0.92,1.402,0.92,2.414c0,1.062-0.314,1.908-0.943,2.537c-0.629,0.629-1.481,0.943-2.555,0.943
			c-1.054,0-1.892-0.301-2.513-0.902C449.316,175.15,449.008,174.328,449.008,173.289z M450.924,173.266
			c0,1.293,0.527,1.939,1.582,1.939c1.012,0,1.517-0.664,1.517-1.992c0-1.266-0.509-1.899-1.529-1.899
			c-0.496,0-0.883,0.17-1.16,0.51C451.061,172.164,450.924,172.645,450.924,173.266z M465.713,176.26
			c-0.453,0.265-1.098,0.398-1.934,0.398c-0.988,0-1.787-0.301-2.396-0.902c-0.61-0.602-0.914-1.381-0.914-2.338
			c0-1.102,0.328-1.969,0.984-2.602c0.656-0.636,1.531-0.955,2.625-0.955c0.738,0,1.285,0.102,1.641,0.305v1.623
			c-0.434-0.316-0.907-0.475-1.418-0.475c-0.578,0-1.043,0.176-1.395,0.528c-0.347,0.351-0.521,0.834-0.521,1.447
			c0,0.594,0.166,1.063,0.498,1.406c0.332,0.34,0.783,0.51,1.353,0.51c0.504,0,0.996-0.16,1.477-0.48V176.26z M466.668,173.289
			c0-1.066,0.318-1.904,0.955-2.514c0.641-0.609,1.5-0.914,2.578-0.914c1.043,0,1.871,0.301,2.485,0.903
			c0.613,0.597,0.919,1.402,0.919,2.414c0,1.062-0.314,1.908-0.943,2.537s-1.48,0.943-2.555,0.943c-1.054,0-1.892-0.301-2.513-0.902
			C466.977,175.15,466.668,174.328,466.668,173.289z M468.584,173.266c0,1.293,0.527,1.939,1.582,1.939
			c1.012,0,1.518-0.664,1.518-1.992c0-1.266-0.51-1.899-1.53-1.899c-0.496,0-0.883,0.17-1.16,0.51
			C468.721,172.164,468.584,172.645,468.584,173.266z M481.1,176.5h-1.881v-3.615c0-1.047-0.377-1.571-1.131-1.571
			c-0.359,0-0.658,0.141-0.897,0.422c-0.238,0.278-0.357,0.633-0.357,1.067v3.697h-1.893v-6.48h1.893v1.031h0.023
			c0.473-0.793,1.168-1.19,2.086-1.19c1.438,0,2.157,0.891,2.157,2.672V176.5z M488.881,176.5H487v-3.615
			c0-1.047-0.377-1.571-1.131-1.571c-0.359,0-0.658,0.141-0.896,0.422c-0.239,0.278-0.358,0.633-0.358,1.067v3.697h-1.892v-6.48
			h1.892v1.031h0.024c0.472-0.793,1.168-1.19,2.086-1.19c1.437,0,2.156,0.891,2.156,2.672V176.5z M496.258,173.793h-4.266
			c0.067,1.004,0.672,1.506,1.817,1.506c0.714,0,1.345-0.176,1.892-0.528v1.389c-0.59,0.332-1.363,0.498-2.32,0.498
			c-1.031,0-1.834-0.291-2.408-0.873c-0.571-0.582-0.856-1.392-0.856-2.431c0-1.036,0.305-1.875,0.914-2.52
			c0.61-0.648,1.375-0.973,2.297-0.973c0.918,0,1.635,0.28,2.151,0.838c0.519,0.555,0.779,1.319,0.779,2.291V173.793z
			 M494.494,172.609c0-0.968-0.392-1.453-1.178-1.453c-0.324,0-0.611,0.133-0.861,0.399c-0.25,0.265-0.406,0.617-0.469,1.054
			H494.494z M502.346,176.26c-0.453,0.265-1.098,0.398-1.934,0.398c-0.988,0-1.787-0.301-2.396-0.902
			c-0.61-0.602-0.914-1.381-0.914-2.338c0-1.102,0.328-1.969,0.984-2.602c0.656-0.636,1.531-0.955,2.625-0.955
			c0.738,0,1.285,0.102,1.641,0.305v1.623c-0.434-0.316-0.907-0.475-1.418-0.475c-0.579,0-1.043,0.176-1.395,0.528
			c-0.348,0.351-0.521,0.834-0.521,1.447c0,0.594,0.166,1.063,0.498,1.406c0.332,0.34,0.783,0.51,1.353,0.51
			c0.504,0,0.996-0.16,1.477-0.48V176.26z M507.502,176.424c-0.285,0.156-0.717,0.234-1.295,0.234c-1.375,0-2.062-0.722-2.062-2.168
			v-3.058h-1.067v-1.412h1.067v-1.424l1.88-0.539v1.963h1.477v1.412h-1.477v2.73c0,0.692,0.274,1.037,0.821,1.037
			c0.211,0,0.429-0.062,0.656-0.187V176.424z"/>
		<path class="st14" d="M415,266.5h185c2.209,0,4,1.791,4,4v16c0,2.209-1.791,4-4,4H415c-2.209,0-4-1.791-4-4v-16
			C411,268.291,412.791,266.5,415,266.5z"/>
		<path class="st11" d="M415.871,281.215c0.731,0.605,1.561,0.908,2.49,0.908c0.528,0,0.924-0.09,1.19-0.269
			c0.265-0.184,0.398-0.418,0.398-0.704c0-0.246-0.105-0.478-0.316-0.697s-0.768-0.515-1.67-0.891
			c-1.418-0.601-2.127-1.476-2.127-2.624c0-0.844,0.32-1.499,0.961-1.963c0.644-0.469,1.496-0.704,2.555-0.704
			c0.886,0,1.63,0.116,2.232,0.346v1.817c-0.609-0.414-1.322-0.622-2.139-0.622c-0.476,0-0.857,0.088-1.142,0.264
			c-0.285,0.172-0.428,0.404-0.428,0.697c0,0.235,0.098,0.452,0.293,0.651c0.195,0.195,0.678,0.461,1.447,0.797
			c0.903,0.386,1.522,0.795,1.858,1.224c0.339,0.43,0.509,0.942,0.509,1.535c0,0.872-0.308,1.536-0.925,1.993
			c-0.618,0.457-1.495,0.685-2.631,0.685c-1.039,0-1.891-0.168-2.555-0.504V281.215z M426.793,283.424
			c-0.285,0.156-0.717,0.234-1.295,0.234c-1.375,0-2.062-0.722-2.062-2.168v-3.058h-1.067v-1.412h1.067v-1.424l1.88-0.539v1.963
			h1.477v1.412h-1.477v2.73c0,0.692,0.274,1.037,0.821,1.037c0.211,0,0.429-0.062,0.656-0.187V283.424z M433.643,280.793h-4.266
			c0.066,1.004,0.672,1.506,1.816,1.506c0.715,0,1.346-0.176,1.893-0.528v1.389c-0.59,0.332-1.363,0.498-2.32,0.498
			c-1.032,0-1.834-0.291-2.409-0.873c-0.57-0.582-0.855-1.392-0.855-2.431c0-1.036,0.305-1.875,0.914-2.52
			c0.609-0.648,1.375-0.973,2.297-0.973c0.918,0,1.635,0.28,2.15,0.838c0.52,0.555,0.78,1.319,0.78,2.291V280.793z M431.879,279.609
			c0-0.968-0.393-1.453-1.178-1.453c-0.324,0-0.611,0.133-0.861,0.399c-0.25,0.265-0.406,0.617-0.469,1.054H431.879z
			 M436.766,282.721v3.761h-1.893v-9.462h1.893v0.99h0.023c0.496-0.766,1.197-1.149,2.104-1.149c0.824,0,1.468,0.289,1.933,0.868
			c0.465,0.574,0.697,1.357,0.697,2.349c0,1.082-0.269,1.949-0.808,2.602c-0.539,0.652-1.246,0.978-2.121,0.978
			c-0.793,0-1.395-0.312-1.805-0.937H436.766z M436.736,280.635c0,0.461,0.125,0.838,0.375,1.131s0.575,0.439,0.973,0.439
			c0.473,0,0.84-0.184,1.102-0.551c0.265-0.367,0.398-0.886,0.398-1.558c0-1.188-0.463-1.782-1.389-1.782
			c-0.429,0-0.781,0.165-1.054,0.493c-0.27,0.328-0.405,0.75-0.405,1.265V280.635z M452.182,283.5h-5.918v-1.488l2.607-2.502
			c0.547-0.524,0.93-0.963,1.149-1.319c0.218-0.355,0.328-0.724,0.328-1.107c0-0.863-0.463-1.295-1.389-1.295
			c-0.777,0-1.529,0.313-2.256,0.938v-1.682c0.777-0.516,1.66-0.774,2.649-0.774c0.894,0,1.603,0.229,2.127,0.686
			c0.523,0.453,0.785,1.082,0.785,1.887c0,1.062-0.645,2.176-1.934,3.34l-1.892,1.705v0.035h3.744V283.5z M455.645,281.924
			l-0.944,3.187h-1.465l0.657-3.187H455.645z M465.711,283.26c-0.453,0.265-1.098,0.398-1.934,0.398
			c-0.988,0-1.787-0.301-2.396-0.902c-0.61-0.602-0.914-1.381-0.914-2.338c0-1.102,0.328-1.969,0.984-2.602
			c0.656-0.636,1.531-0.955,2.625-0.955c0.738,0,1.285,0.102,1.641,0.305v1.623c-0.434-0.316-0.906-0.475-1.418-0.475
			c-0.578,0-1.043,0.176-1.395,0.528c-0.347,0.351-0.521,0.834-0.521,1.447c0,0.594,0.166,1.063,0.498,1.406
			c0.332,0.34,0.783,0.51,1.353,0.51c0.504,0,0.996-0.16,1.477-0.48V283.26z M467.023,283.5v-9.592h1.887v9.592H467.023z
			 M470.434,274.928c0-0.289,0.101-0.524,0.304-0.703c0.207-0.184,0.471-0.276,0.791-0.276c0.328,0,0.594,0.094,0.797,0.281
			c0.203,0.184,0.305,0.416,0.305,0.698c0,0.285-0.104,0.523-0.311,0.715c-0.207,0.187-0.47,0.281-0.791,0.281
			c-0.316,0-0.578-0.096-0.785-0.287C470.537,275.445,470.434,275.209,470.434,274.928z M470.574,283.5v-6.48h1.887v6.48H470.574z
			 M479.012,283.26c-0.453,0.265-1.098,0.398-1.934,0.398c-0.988,0-1.787-0.301-2.396-0.902c-0.61-0.602-0.914-1.381-0.914-2.338
			c0-1.102,0.328-1.969,0.984-2.602c0.656-0.636,1.531-0.955,2.625-0.955c0.738,0,1.285,0.102,1.641,0.305v1.623
			c-0.434-0.316-0.907-0.475-1.418-0.475c-0.579,0-1.043,0.176-1.395,0.528c-0.348,0.351-0.521,0.834-0.521,1.447
			c0,0.594,0.166,1.063,0.498,1.406c0.332,0.34,0.783,0.51,1.353,0.51c0.504,0,0.996-0.16,1.477-0.48V283.26z M486.723,283.5h-2.297
			l-2.156-3.205h-0.024v3.205h-1.892v-9.592h1.892v6.106h0.024l2.021-2.994h2.256l-2.402,3.058L486.723,283.5z M490.701,280.289
			c0-1.066,0.319-1.904,0.955-2.514c0.641-0.609,1.5-0.914,2.578-0.914c1.043,0,1.871,0.301,2.485,0.903
			c0.613,0.597,0.92,1.402,0.92,2.414c0,1.062-0.315,1.908-0.944,2.537s-1.48,0.943-2.554,0.943c-1.055,0-1.893-0.301-2.514-0.902
			C491.01,282.15,490.701,281.328,490.701,280.289z M492.617,280.266c0,1.293,0.528,1.939,1.582,1.939
			c1.012,0,1.518-0.664,1.518-1.992c0-1.266-0.51-1.899-1.529-1.899c-0.497,0-0.883,0.17-1.161,0.51
			C492.754,279.164,492.617,279.645,492.617,280.266z M505.133,283.5h-1.881v-3.615c0-1.047-0.377-1.571-1.131-1.571
			c-0.359,0-0.658,0.141-0.896,0.422c-0.239,0.278-0.358,0.633-0.358,1.067v3.697h-1.892v-6.48h1.892v1.031h0.024
			c0.472-0.793,1.168-1.19,2.086-1.19c1.437,0,2.156,0.891,2.156,2.672V283.5z M514.145,283.424
			c-0.286,0.156-0.717,0.234-1.295,0.234c-1.375,0-2.063-0.722-2.063-2.168v-3.058h-1.066v-1.412h1.066v-1.424l1.881-0.539v1.963
			h1.477v1.412h-1.477v2.73c0,0.692,0.273,1.037,0.82,1.037c0.211,0,0.43-0.062,0.657-0.187V283.424z M521.422,283.5h-1.887v-3.691
			c0-0.997-0.363-1.495-1.09-1.495c-0.363,0-0.664,0.139-0.902,0.416c-0.234,0.278-0.352,0.637-0.352,1.079v3.691h-1.892v-9.592
			h1.892v4.084h0.024c0.496-0.754,1.164-1.131,2.004-1.131c1.469,0,2.203,0.887,2.203,2.66V283.5z M528.799,280.793h-4.266
			c0.067,1.004,0.672,1.506,1.817,1.506c0.714,0,1.345-0.176,1.892-0.528v1.389c-0.59,0.332-1.363,0.498-2.32,0.498
			c-1.031,0-1.834-0.291-2.408-0.873c-0.571-0.582-0.856-1.392-0.856-2.431c0-1.036,0.305-1.875,0.914-2.52
			c0.61-0.648,1.375-0.973,2.297-0.973c0.918,0,1.635,0.28,2.151,0.838c0.519,0.555,0.779,1.319,0.779,2.291V280.793z
			 M527.035,279.609c0-0.968-0.392-1.453-1.178-1.453c-0.324,0-0.611,0.133-0.861,0.399c-0.25,0.265-0.406,0.617-0.469,1.054
			H527.035z M538.461,283.26c-0.453,0.265-1.098,0.398-1.934,0.398c-0.988,0-1.787-0.301-2.396-0.902
			c-0.61-0.602-0.914-1.381-0.914-2.338c0-1.102,0.328-1.969,0.984-2.602c0.656-0.636,1.531-0.955,2.625-0.955
			c0.738,0,1.285,0.102,1.641,0.305v1.623c-0.434-0.316-0.906-0.475-1.418-0.475c-0.578,0-1.043,0.176-1.395,0.528
			c-0.347,0.351-0.521,0.834-0.521,1.447c0,0.594,0.166,1.063,0.498,1.406c0.332,0.34,0.783,0.51,1.353,0.51
			c0.504,0,0.996-0.16,1.477-0.48V283.26z M539.416,280.289c0-1.066,0.318-1.904,0.955-2.514c0.641-0.609,1.5-0.914,2.578-0.914
			c1.043,0,1.871,0.301,2.485,0.903c0.613,0.597,0.92,1.402,0.92,2.414c0,1.062-0.315,1.908-0.944,2.537
			c-0.629,0.629-1.48,0.943-2.555,0.943c-1.054,0-1.892-0.301-2.513-0.902C539.725,282.15,539.416,281.328,539.416,280.289z
			 M541.332,280.266c0,1.293,0.527,1.939,1.582,1.939c1.012,0,1.518-0.664,1.518-1.992c0-1.266-0.51-1.899-1.53-1.899
			c-0.496,0-0.882,0.17-1.16,0.51C541.469,279.164,541.332,279.645,541.332,280.266z M553.848,283.5h-1.881v-3.615
			c0-1.047-0.377-1.571-1.131-1.571c-0.359,0-0.658,0.141-0.897,0.422c-0.238,0.278-0.357,0.633-0.357,1.067v3.697h-1.893v-6.48
			h1.893v1.031h0.023c0.473-0.793,1.168-1.19,2.086-1.19c1.438,0,2.157,0.891,2.157,2.672V283.5z M561.629,283.5h-1.881v-3.615
			c0-1.047-0.377-1.571-1.131-1.571c-0.359,0-0.658,0.141-0.896,0.422c-0.239,0.278-0.358,0.633-0.358,1.067v3.697h-1.892v-6.48
			h1.892v1.031h0.024c0.472-0.793,1.168-1.19,2.086-1.19c1.437,0,2.156,0.891,2.156,2.672V283.5z M569.006,280.793h-4.266
			c0.067,1.004,0.672,1.506,1.817,1.506c0.714,0,1.345-0.176,1.892-0.528v1.389c-0.59,0.332-1.363,0.498-2.32,0.498
			c-1.031,0-1.834-0.291-2.408-0.873c-0.571-0.582-0.856-1.392-0.856-2.431c0-1.036,0.305-1.875,0.914-2.52
			c0.61-0.648,1.375-0.973,2.297-0.973c0.918,0,1.635,0.28,2.151,0.838c0.519,0.555,0.779,1.319,0.779,2.291V280.793z
			 M567.242,279.609c0-0.968-0.392-1.453-1.178-1.453c-0.324,0-0.611,0.133-0.861,0.399c-0.25,0.265-0.406,0.617-0.469,1.054
			H567.242z M575.094,283.26c-0.453,0.265-1.098,0.398-1.934,0.398c-0.988,0-1.787-0.301-2.396-0.902
			c-0.61-0.602-0.914-1.381-0.914-2.338c0-1.102,0.328-1.969,0.984-2.602c0.656-0.636,1.531-0.955,2.625-0.955
			c0.738,0,1.285,0.102,1.641,0.305v1.623c-0.434-0.316-0.907-0.475-1.418-0.475c-0.578,0-1.043,0.176-1.395,0.528
			c-0.348,0.351-0.521,0.834-0.521,1.447c0,0.594,0.166,1.063,0.498,1.406c0.332,0.34,0.783,0.51,1.353,0.51
			c0.504,0,0.996-0.16,1.477-0.48V283.26z M580.25,283.424c-0.285,0.156-0.717,0.234-1.295,0.234c-1.375,0-2.062-0.722-2.062-2.168
			v-3.058h-1.067v-1.412h1.067v-1.424l1.88-0.539v1.963h1.477v1.412h-1.477v2.73c0,0.692,0.274,1.037,0.821,1.037
			c0.211,0,0.429-0.062,0.656-0.187V283.424z M581.234,274.928c0-0.289,0.102-0.524,0.305-0.703
			c0.207-0.184,0.471-0.276,0.791-0.276c0.328,0,0.594,0.094,0.797,0.281c0.203,0.184,0.305,0.416,0.305,0.698
			c0,0.285-0.104,0.523-0.311,0.715c-0.207,0.187-0.471,0.281-0.791,0.281c-0.316,0-0.578-0.096-0.785-0.287
			C581.338,275.445,581.234,275.209,581.234,274.928z M581.375,283.5v-6.48h1.887v6.48H581.375z M584.568,280.289
			c0-1.066,0.319-1.904,0.955-2.514c0.641-0.609,1.5-0.914,2.579-0.914c1.043,0,1.871,0.301,2.484,0.903
			c0.613,0.597,0.92,1.402,0.92,2.414c0,1.062-0.315,1.908-0.944,2.537c-0.628,0.629-1.48,0.943-2.554,0.943
			c-1.055,0-1.893-0.301-2.514-0.902C584.877,282.15,584.568,281.328,584.568,280.289z M586.484,280.266
			c0,1.293,0.528,1.939,1.582,1.939c1.012,0,1.518-0.664,1.518-1.992c0-1.266-0.51-1.899-1.529-1.899c-0.496,0-0.883,0.17-1.16,0.51
			C586.621,279.164,586.484,279.645,586.484,280.266z M599,283.5h-1.881v-3.615c0-1.047-0.377-1.571-1.131-1.571
			c-0.359,0-0.658,0.141-0.896,0.422c-0.238,0.278-0.358,0.633-0.358,1.067v3.697h-1.892v-6.48h1.892v1.031h0.024
			c0.472-0.793,1.168-1.19,2.086-1.19c1.437,0,2.156,0.891,2.156,2.672V283.5z"/>
		<path class="st15" d="M308.149,350.806h-2.182v6.694h-0.982v-6.694h-2.173v-0.869h5.337V350.806z M309.072,350.195
			c0-0.169,0.057-0.311,0.171-0.424c0.117-0.118,0.261-0.176,0.43-0.176c0.172,0,0.317,0.057,0.434,0.171
			c0.121,0.114,0.181,0.257,0.181,0.429c0,0.17-0.06,0.311-0.181,0.425c-0.117,0.111-0.262,0.166-0.434,0.166
			c-0.173,0-0.316-0.055-0.43-0.166C309.129,350.506,309.072,350.365,309.072,350.195z M309.185,357.5v-5.4h0.957v5.4H309.185z
			 M312.812,356.738v3.247h-0.957V352.1h0.957v0.932h0.02c0.423-0.706,1.042-1.059,1.856-1.059c0.69,0,1.23,0.242,1.621,0.727
			c0.393,0.482,0.59,1.13,0.59,1.944c0,0.898-0.223,1.621-0.669,2.168c-0.442,0.543-1.04,0.815-1.792,0.815
			c-0.693,0-1.228-0.296-1.606-0.889H312.812z M312.808,355.273c0,0.44,0.141,0.811,0.424,1.114
			c0.284,0.299,0.638,0.449,1.065,0.449c0.508,0,0.905-0.195,1.191-0.586c0.287-0.391,0.43-0.931,0.43-1.621
			c0-0.583-0.133-1.039-0.4-1.367c-0.267-0.332-0.632-0.498-1.094-0.498c-0.472,0-0.86,0.167-1.162,0.503
			c-0.303,0.335-0.454,0.765-0.454,1.289V355.273z M317.939,356.333c0.482,0.348,1.001,0.522,1.558,0.522
			c0.746,0,1.118-0.244,1.118-0.732c0-0.208-0.081-0.379-0.244-0.513c-0.163-0.136-0.493-0.298-0.991-0.483
			c-0.599-0.241-0.988-0.479-1.167-0.713c-0.179-0.238-0.269-0.524-0.269-0.859c0-0.479,0.202-0.861,0.606-1.148
			c0.407-0.289,0.906-0.434,1.499-0.434c0.459,0,0.885,0.079,1.279,0.239v0.923c-0.404-0.261-0.861-0.391-1.372-0.391
			c-0.306,0-0.555,0.067-0.747,0.2c-0.192,0.134-0.288,0.31-0.288,0.528c0,0.215,0.068,0.382,0.205,0.503
			c0.14,0.12,0.448,0.275,0.923,0.463c0.602,0.225,1.009,0.458,1.221,0.699c0.211,0.241,0.317,0.538,0.317,0.893
			c0,0.495-0.204,0.886-0.61,1.172c-0.404,0.283-0.928,0.425-1.573,0.425c-0.56,0-1.048-0.106-1.465-0.317V356.333z
			 M322.598,352.603c0-0.176,0.062-0.323,0.185-0.44c0.124-0.117,0.272-0.176,0.445-0.176c0.175,0,0.325,0.061,0.449,0.181
			c0.123,0.117,0.185,0.262,0.185,0.435c0,0.172-0.06,0.319-0.18,0.439c-0.121,0.12-0.274,0.181-0.459,0.181
			c-0.176,0-0.324-0.061-0.445-0.181C322.658,352.922,322.598,352.775,322.598,352.603z M322.598,356.997
			c0-0.176,0.06-0.324,0.18-0.444c0.121-0.121,0.271-0.181,0.45-0.181c0.182,0,0.333,0.062,0.454,0.186
			c0.12,0.12,0.18,0.267,0.18,0.439c0,0.169-0.06,0.316-0.18,0.44c-0.121,0.12-0.274,0.18-0.459,0.18c-0.179,0-0.329-0.06-0.45-0.18
			C322.656,357.313,322.598,357.166,322.598,356.997z M330.068,350.762h-0.727v5.913h0.727v0.825h-2.431v-0.825h0.727v-5.913h-0.727
			v-0.825h2.431V350.762z M333.95,350.322c-0.179-0.094-0.373-0.141-0.581-0.141c-0.599,0-0.898,0.371-0.898,1.113v0.806h1.264
			v0.791h-1.264v4.609h-0.948v-4.609h-0.922V352.1h0.922v-0.85c0-0.579,0.166-1.034,0.498-1.362
			c0.336-0.332,0.761-0.498,1.275-0.498c0.273,0,0.491,0.031,0.654,0.092V350.322z M340.2,357.446
			c-0.208,0.114-0.49,0.171-0.845,0.171c-0.966,0-1.45-0.535-1.45-1.606v-3.12h-0.927V352.1h0.927v-1.299l0.952-0.303v1.602h1.343
			v0.791h-1.343v2.949c0,0.355,0.061,0.609,0.181,0.762c0.121,0.153,0.321,0.229,0.601,0.229c0.215,0,0.402-0.06,0.561-0.181
			V357.446z M345.898,357.5h-0.952v-3.105c0-1.088-0.403-1.631-1.211-1.631c-0.413,0-0.756,0.159-1.03,0.478
			c-0.273,0.316-0.41,0.715-0.41,1.196v3.062h-0.957v-7.993h0.957v3.481h0.019c0.414-0.677,1.001-1.015,1.763-1.015
			c1.214,0,1.821,0.734,1.821,2.202V357.5z M351.899,355.044h-3.779c0.016,0.576,0.174,1.022,0.474,1.338
			c0.299,0.312,0.718,0.469,1.255,0.469c0.605,0,1.16-0.194,1.665-0.581v0.854c-0.476,0.335-1.105,0.503-1.89,0.503
			c-0.781,0-1.392-0.247-1.831-0.742c-0.436-0.495-0.654-1.182-0.654-2.061c0-0.827,0.239-1.509,0.717-2.046
			c0.482-0.537,1.08-0.805,1.792-0.805c0.707,0,1.259,0.228,1.656,0.683c0.397,0.453,0.595,1.087,0.595,1.905V355.044z
			 M350.942,354.277c-0.003-0.488-0.118-0.866-0.346-1.132c-0.228-0.267-0.549-0.401-0.962-0.401c-0.381,0-0.711,0.142-0.991,0.425
			c-0.277,0.283-0.451,0.653-0.523,1.108H350.942z M360.82,357.5h-0.957v-0.898h-0.019c-0.394,0.683-1.006,1.025-1.836,1.025
			c-0.684,0-1.227-0.243-1.631-0.728c-0.404-0.488-0.606-1.145-0.606-1.972c0-0.892,0.228-1.607,0.684-2.144
			c0.456-0.54,1.052-0.81,1.787-0.81c0.736,0,1.27,0.286,1.602,0.859h0.019v-3.325h0.957V357.5z M359.868,354.287
			c0-0.433-0.143-0.794-0.43-1.084c-0.283-0.293-0.633-0.439-1.049-0.439c-0.508,0-0.909,0.19-1.201,0.571
			c-0.293,0.378-0.44,0.894-0.44,1.548c0,0.602,0.14,1.079,0.42,1.43c0.283,0.349,0.659,0.523,1.128,0.523
			c0.462,0,0.84-0.171,1.133-0.513c0.293-0.345,0.439-0.773,0.439-1.284V354.287z M366.929,355.044h-3.78
			c0.017,0.576,0.175,1.022,0.474,1.338c0.3,0.312,0.718,0.469,1.255,0.469c0.605,0,1.16-0.194,1.665-0.581v0.854
			c-0.475,0.335-1.105,0.503-1.89,0.503c-0.781,0-1.391-0.247-1.831-0.742c-0.436-0.495-0.654-1.182-0.654-2.061
			c0-0.827,0.239-1.509,0.718-2.046c0.482-0.537,1.079-0.805,1.792-0.805c0.706,0,1.258,0.228,1.655,0.683
			c0.397,0.453,0.596,1.087,0.596,1.905V355.044z M365.972,354.277c-0.004-0.488-0.119-0.866-0.347-1.132
			c-0.228-0.267-0.549-0.401-0.962-0.401c-0.381,0-0.711,0.142-0.991,0.425c-0.277,0.283-0.451,0.653-0.523,1.108H365.972z
			 M372.554,352.1l-2.139,5.4h-0.967l-2.031-5.4h1.045l1.318,3.857c0.108,0.309,0.171,0.568,0.191,0.776h0.024
			c0.033-0.273,0.09-0.525,0.171-0.756l1.382-3.877H372.554z M373.34,350.195c0-0.169,0.057-0.311,0.171-0.424
			c0.117-0.118,0.26-0.176,0.429-0.176c0.173,0,0.318,0.057,0.435,0.171c0.12,0.114,0.181,0.257,0.181,0.429
			c0,0.17-0.061,0.311-0.181,0.425c-0.117,0.111-0.262,0.166-0.435,0.166c-0.172,0-0.315-0.055-0.429-0.166
			C373.397,350.506,373.34,350.365,373.34,350.195z M373.452,357.5v-5.4h0.957v5.4H373.452z M379.854,357.256
			c-0.414,0.247-0.912,0.371-1.495,0.371c-0.781,0-1.409-0.251-1.884-0.752c-0.476-0.501-0.713-1.151-0.713-1.948
			c0-0.886,0.255-1.599,0.766-2.139c0.515-0.544,1.201-0.815,2.061-0.815c0.495,0,0.918,0.088,1.269,0.263v0.948
			c-0.38-0.28-0.804-0.42-1.269-0.42c-0.547,0-0.993,0.19-1.338,0.571c-0.342,0.378-0.513,0.882-0.513,1.514
			c0,0.621,0.161,1.108,0.484,1.46c0.325,0.351,0.763,0.527,1.313,0.527c0.466,0,0.905-0.153,1.319-0.459V357.256z M385.542,355.044
			h-3.779c0.016,0.576,0.174,1.022,0.473,1.338c0.3,0.312,0.718,0.469,1.255,0.469c0.606,0,1.161-0.194,1.665-0.581v0.854
			c-0.475,0.335-1.105,0.503-1.889,0.503c-0.782,0-1.392-0.247-1.831-0.742c-0.437-0.495-0.655-1.182-0.655-2.061
			c0-0.827,0.24-1.509,0.718-2.046c0.482-0.537,1.079-0.805,1.792-0.805c0.706,0,1.258,0.228,1.655,0.683
			c0.397,0.453,0.596,1.087,0.596,1.905V355.044z M384.585,354.277c-0.003-0.488-0.119-0.866-0.347-1.132
			c-0.228-0.267-0.548-0.401-0.962-0.401c-0.38,0-0.711,0.142-0.991,0.425c-0.277,0.283-0.451,0.653-0.522,1.108H384.585z
			 M389.658,350.195c0-0.169,0.057-0.311,0.171-0.424c0.117-0.118,0.261-0.176,0.43-0.176c0.172,0,0.317,0.057,0.434,0.171
			c0.121,0.114,0.181,0.257,0.181,0.429c0,0.17-0.06,0.311-0.181,0.425c-0.117,0.111-0.262,0.166-0.434,0.166
			c-0.173,0-0.316-0.055-0.43-0.166C389.715,350.506,389.658,350.365,389.658,350.195z M389.771,357.5v-5.4h0.957v5.4H389.771z
			 M392.139,356.333c0.481,0.348,1.001,0.522,1.557,0.522c0.746,0,1.118-0.244,1.118-0.732c0-0.208-0.081-0.379-0.244-0.513
			c-0.162-0.136-0.493-0.298-0.991-0.483c-0.599-0.241-0.988-0.479-1.167-0.713c-0.179-0.238-0.268-0.524-0.268-0.859
			c0-0.479,0.201-0.861,0.605-1.148c0.407-0.289,0.907-0.434,1.499-0.434c0.459,0,0.885,0.079,1.279,0.239v0.923
			c-0.403-0.261-0.861-0.391-1.372-0.391c-0.306,0-0.555,0.067-0.747,0.2c-0.192,0.134-0.288,0.31-0.288,0.528
			c0,0.215,0.068,0.382,0.205,0.503c0.14,0.12,0.448,0.275,0.923,0.463c0.602,0.225,1.009,0.458,1.221,0.699
			c0.211,0.241,0.317,0.538,0.317,0.893c0,0.495-0.203,0.886-0.61,1.172c-0.404,0.283-0.928,0.425-1.572,0.425
			c-0.56,0-1.049-0.106-1.465-0.317V356.333z M404.595,357.5h-0.952v-3.071c0-1.11-0.406-1.665-1.216-1.665
			c-0.42,0-0.765,0.156-1.035,0.468c-0.271,0.313-0.406,0.708-0.406,1.187v3.081h-0.957v-5.4h0.957v0.893h0.02
			c0.407-0.68,0.998-1.02,1.772-1.02c0.593,0,1.044,0.19,1.353,0.571c0.309,0.378,0.464,0.929,0.464,1.655V357.5z M405.83,354.858
			c0-0.892,0.249-1.595,0.747-2.109c0.498-0.518,1.174-0.776,2.027-0.776c0.81,0,1.445,0.249,1.904,0.747
			c0.462,0.495,0.693,1.18,0.693,2.055c0,0.853-0.246,1.542-0.737,2.066c-0.492,0.524-1.151,0.786-1.978,0.786
			c-0.807,0-1.451-0.254-1.933-0.762S405.83,355.688,405.83,354.858z M406.807,354.829c0,0.622,0.156,1.112,0.468,1.47
			c0.316,0.358,0.739,0.537,1.27,0.537c0.547,0,0.963-0.174,1.25-0.523c0.286-0.351,0.43-0.854,0.43-1.508
			c0-0.658-0.144-1.162-0.43-1.514c-0.287-0.352-0.703-0.527-1.25-0.527c-0.537,0-0.962,0.184-1.274,0.551
			C406.961,353.683,406.807,354.188,406.807,354.829z M415.142,357.446c-0.209,0.114-0.49,0.171-0.845,0.171
			c-0.967,0-1.45-0.535-1.45-1.606v-3.12h-0.928V352.1h0.928v-1.299l0.952-0.303v1.602h1.343v0.791h-1.343v2.949
			c0,0.355,0.06,0.609,0.18,0.762c0.121,0.153,0.321,0.229,0.601,0.229c0.215,0,0.402-0.06,0.562-0.181V357.446z M423.926,357.5
			h-0.957v-0.898h-0.02c-0.394,0.683-1.006,1.025-1.836,1.025c-0.683,0-1.227-0.243-1.631-0.728
			c-0.403-0.488-0.605-1.145-0.605-1.972c0-0.892,0.228-1.607,0.684-2.144c0.455-0.54,1.051-0.81,1.787-0.81
			c0.735,0,1.269,0.286,1.601,0.859h0.02v-3.325h0.957V357.5z M422.974,354.287c0-0.433-0.144-0.794-0.43-1.084
			c-0.283-0.293-0.633-0.439-1.05-0.439c-0.508,0-0.908,0.19-1.201,0.571c-0.293,0.378-0.439,0.894-0.439,1.548
			c0,0.602,0.139,1.079,0.419,1.43c0.284,0.349,0.66,0.523,1.128,0.523c0.463,0,0.84-0.171,1.133-0.513
			c0.293-0.345,0.44-0.773,0.44-1.284V354.287z M425.518,350.195c0-0.169,0.057-0.311,0.17-0.424
			c0.118-0.118,0.261-0.176,0.43-0.176c0.173,0,0.318,0.057,0.435,0.171c0.12,0.114,0.18,0.257,0.18,0.429
			c0,0.17-0.06,0.311-0.18,0.425c-0.117,0.111-0.262,0.166-0.435,0.166c-0.172,0-0.316-0.055-0.43-0.166
			C425.575,350.506,425.518,350.365,425.518,350.195z M425.63,357.5v-5.4h0.957v5.4H425.63z M427.998,356.333
			c0.482,0.348,1.001,0.522,1.558,0.522c0.745,0,1.118-0.244,1.118-0.732c0-0.208-0.082-0.379-0.244-0.513
			c-0.163-0.136-0.493-0.298-0.992-0.483c-0.598-0.241-0.987-0.479-1.167-0.713c-0.179-0.238-0.268-0.524-0.268-0.859
			c0-0.479,0.202-0.861,0.605-1.148c0.407-0.289,0.907-0.434,1.499-0.434c0.459,0,0.886,0.079,1.28,0.239v0.923
			c-0.404-0.261-0.861-0.391-1.372-0.391c-0.306,0-0.555,0.067-0.747,0.2c-0.192,0.134-0.289,0.31-0.289,0.528
			c0,0.215,0.069,0.382,0.206,0.503c0.14,0.12,0.447,0.275,0.922,0.463c0.603,0.225,1.01,0.458,1.221,0.699
			c0.212,0.241,0.318,0.538,0.318,0.893c0,0.495-0.204,0.886-0.611,1.172c-0.403,0.283-0.928,0.425-1.572,0.425
			c-0.56,0-1.048-0.106-1.465-0.317V356.333z M433.887,356.738v3.247h-0.957V352.1h0.957v0.932h0.019
			c0.423-0.706,1.042-1.059,1.856-1.059c0.69,0,1.23,0.242,1.621,0.727c0.394,0.482,0.591,1.13,0.591,1.944
			c0,0.898-0.223,1.621-0.669,2.168c-0.443,0.543-1.04,0.815-1.792,0.815c-0.694,0-1.229-0.296-1.607-0.889H433.887z
			 M433.882,355.273c0,0.44,0.141,0.811,0.425,1.114c0.283,0.299,0.638,0.449,1.064,0.449c0.508,0,0.905-0.195,1.191-0.586
			c0.287-0.391,0.43-0.931,0.43-1.621c0-0.583-0.133-1.039-0.4-1.367c-0.267-0.332-0.632-0.498-1.094-0.498
			c-0.472,0-0.859,0.167-1.162,0.503c-0.303,0.335-0.454,0.765-0.454,1.289V355.273z M439.312,357.5v-7.993h0.957v7.993H439.312z
			 M442.109,352.476c0.537-0.336,1.158-0.503,1.861-0.503c1.302,0,1.953,0.683,1.953,2.05v3.477h-0.947v-0.835h-0.025
			c-0.374,0.641-0.926,0.962-1.655,0.962c-0.524,0-0.941-0.142-1.25-0.425c-0.309-0.283-0.464-0.666-0.464-1.147
			c0-1.009,0.597-1.597,1.792-1.763l1.602-0.225c0-0.882-0.365-1.323-1.094-1.323c-0.648,0-1.239,0.218-1.773,0.654V352.476z
			 M443.711,354.961c-0.443,0.059-0.749,0.169-0.918,0.332c-0.166,0.163-0.249,0.391-0.249,0.684c0,0.257,0.091,0.467,0.273,0.629
			c0.183,0.163,0.424,0.245,0.723,0.245c0.417,0,0.76-0.147,1.03-0.44c0.27-0.293,0.406-0.661,0.406-1.103v-0.518L443.711,354.961z
			 M451.904,352.1l-2.451,6.215c-0.456,1.153-1.099,1.729-1.929,1.729c-0.237,0-0.441-0.026-0.61-0.078v-0.84
			c0.186,0.072,0.365,0.107,0.537,0.107c0.433,0,0.757-0.254,0.972-0.761l0.415-0.982l-2.119-5.39h1.059l1.411,4.057l0.118,0.445
			h0.024c0.02-0.101,0.059-0.246,0.117-0.435l1.475-4.067H451.904z M457.202,355.044h-3.779c0.016,0.576,0.174,1.022,0.473,1.338
			c0.3,0.312,0.718,0.469,1.255,0.469c0.606,0,1.161-0.194,1.665-0.581v0.854c-0.475,0.335-1.105,0.503-1.889,0.503
			c-0.781,0-1.392-0.247-1.831-0.742c-0.436-0.495-0.655-1.182-0.655-2.061c0-0.827,0.24-1.509,0.718-2.046
			c0.482-0.537,1.079-0.805,1.792-0.805c0.707,0,1.258,0.228,1.655,0.683c0.398,0.453,0.596,1.087,0.596,1.905V355.044z
			 M456.245,354.277c-0.003-0.488-0.119-0.866-0.347-1.132c-0.227-0.267-0.548-0.401-0.961-0.401c-0.381,0-0.712,0.142-0.992,0.425
			c-0.276,0.283-0.451,0.653-0.522,1.108H456.245z M463.164,357.5h-0.957v-0.898h-0.019c-0.394,0.683-1.006,1.025-1.836,1.025
			c-0.684,0-1.228-0.243-1.631-0.728c-0.404-0.488-0.606-1.145-0.606-1.972c0-0.892,0.228-1.607,0.684-2.144
			c0.456-0.54,1.051-0.81,1.787-0.81s1.269,0.286,1.602,0.859h0.019v-3.325h0.957V357.5z M462.212,354.287
			c0-0.433-0.143-0.794-0.43-1.084c-0.283-0.293-0.633-0.439-1.05-0.439c-0.507,0-0.908,0.19-1.201,0.571
			c-0.293,0.378-0.439,0.894-0.439,1.548c0,0.602,0.14,1.079,0.42,1.43c0.283,0.349,0.659,0.523,1.128,0.523
			c0.462,0,0.839-0.171,1.132-0.513c0.293-0.345,0.44-0.773,0.44-1.284V354.287z M465.752,356.284l-0.835,2.603h-0.693l0.605-2.603
			H465.752z M471.201,356.738v3.247h-0.957V352.1h0.957v0.932h0.02c0.423-0.706,1.041-1.059,1.855-1.059
			c0.69,0,1.231,0.242,1.621,0.727c0.394,0.482,0.591,1.13,0.591,1.944c0,0.898-0.223,1.621-0.669,2.168
			c-0.443,0.543-1.04,0.815-1.792,0.815c-0.693,0-1.229-0.296-1.606-0.889H471.201z M471.196,355.273
			c0,0.44,0.142,0.811,0.425,1.114c0.283,0.299,0.638,0.449,1.065,0.449c0.507,0,0.904-0.195,1.191-0.586
			c0.286-0.391,0.43-0.931,0.43-1.621c0-0.583-0.134-1.039-0.401-1.367c-0.267-0.332-0.631-0.498-1.094-0.498
			c-0.472,0-0.859,0.167-1.162,0.503c-0.302,0.335-0.454,0.765-0.454,1.289V355.273z M476.626,357.5v-7.993h0.957v7.993H476.626z
			 M483.696,355.044h-3.779c0.016,0.576,0.174,1.022,0.474,1.338c0.299,0.312,0.717,0.469,1.255,0.469
			c0.605,0,1.16-0.194,1.665-0.581v0.854c-0.476,0.335-1.106,0.503-1.89,0.503c-0.781,0-1.392-0.247-1.831-0.742
			c-0.436-0.495-0.654-1.182-0.654-2.061c0-0.827,0.239-1.509,0.717-2.046c0.482-0.537,1.079-0.805,1.792-0.805
			c0.707,0,1.258,0.228,1.656,0.683c0.397,0.453,0.595,1.087,0.595,1.905V355.044z M482.739,354.277
			c-0.003-0.488-0.119-0.866-0.346-1.132c-0.228-0.267-0.549-0.401-0.962-0.401c-0.381,0-0.712,0.142-0.992,0.425
			c-0.276,0.283-0.45,0.653-0.522,1.108H482.739z M485.098,352.476c0.537-0.336,1.157-0.503,1.86-0.503
			c1.302,0,1.953,0.683,1.953,2.05v3.477h-0.947v-0.835h-0.025c-0.374,0.641-0.926,0.962-1.655,0.962
			c-0.524,0-0.941-0.142-1.25-0.425s-0.464-0.666-0.464-1.147c0-1.009,0.598-1.597,1.792-1.763l1.602-0.225
			c0-0.882-0.365-1.323-1.094-1.323c-0.648,0-1.238,0.218-1.772,0.654V352.476z M486.699,354.961
			c-0.442,0.059-0.748,0.169-0.918,0.332c-0.166,0.163-0.249,0.391-0.249,0.684c0,0.257,0.091,0.467,0.274,0.629
			c0.182,0.163,0.423,0.245,0.722,0.245c0.417,0,0.76-0.147,1.031-0.44c0.27-0.293,0.405-0.661,0.405-1.103v-0.518L486.699,354.961z
			 M490.195,356.333c0.482,0.348,1.001,0.522,1.558,0.522c0.745,0,1.118-0.244,1.118-0.732c0-0.208-0.081-0.379-0.244-0.513
			c-0.163-0.136-0.493-0.298-0.991-0.483c-0.599-0.241-0.988-0.479-1.167-0.713c-0.179-0.238-0.269-0.524-0.269-0.859
			c0-0.479,0.202-0.861,0.606-1.148c0.407-0.289,0.906-0.434,1.499-0.434c0.459,0,0.885,0.079,1.279,0.239v0.923
			c-0.404-0.261-0.861-0.391-1.372-0.391c-0.306,0-0.555,0.067-0.747,0.2c-0.192,0.134-0.288,0.31-0.288,0.528
			c0,0.215,0.068,0.382,0.205,0.503c0.14,0.12,0.447,0.275,0.923,0.463c0.602,0.225,1.009,0.458,1.22,0.699
			c0.212,0.241,0.318,0.538,0.318,0.893c0,0.495-0.204,0.886-0.611,1.172c-0.403,0.283-0.927,0.425-1.572,0.425
			c-0.56,0-1.048-0.106-1.465-0.317V356.333z M499.526,355.044h-3.779c0.016,0.576,0.174,1.022,0.474,1.338
			c0.299,0.312,0.717,0.469,1.255,0.469c0.605,0,1.16-0.194,1.665-0.581v0.854c-0.476,0.335-1.106,0.503-1.89,0.503
			c-0.781,0-1.392-0.247-1.831-0.742c-0.436-0.495-0.654-1.182-0.654-2.061c0-0.827,0.239-1.509,0.717-2.046
			c0.482-0.537,1.079-0.805,1.792-0.805c0.707,0,1.259,0.228,1.656,0.683c0.397,0.453,0.595,1.087,0.595,1.905V355.044z
			 M498.569,354.277c-0.003-0.488-0.118-0.866-0.346-1.132c-0.228-0.267-0.549-0.401-0.962-0.401c-0.381,0-0.712,0.142-0.991,0.425
			c-0.277,0.283-0.451,0.653-0.523,1.108H498.569z M506.353,357.446c-0.209,0.114-0.49,0.171-0.845,0.171
			c-0.967,0-1.45-0.535-1.45-1.606v-3.12h-0.928V352.1h0.928v-1.299l0.952-0.303v1.602h1.343v0.791h-1.343v2.949
			c0,0.355,0.06,0.609,0.18,0.762c0.121,0.153,0.321,0.229,0.601,0.229c0.215,0,0.402-0.06,0.562-0.181V357.446z M510.386,353.047
			c-0.16-0.114-0.379-0.171-0.659-0.171c-0.372,0-0.678,0.174-0.918,0.522c-0.241,0.345-0.362,0.801-0.362,1.368v2.734h-0.957v-5.4
			h0.957v1.098h0.02c0.273-0.794,0.745-1.191,1.416-1.191c0.218,0,0.386,0.024,0.503,0.073V353.047z M515.703,352.1l-2.451,6.215
			c-0.456,1.153-1.099,1.729-1.929,1.729c-0.237,0-0.441-0.026-0.61-0.078v-0.84c0.185,0.072,0.364,0.107,0.537,0.107
			c0.433,0,0.757-0.254,0.972-0.761l0.415-0.982l-2.119-5.39h1.059l1.411,4.057l0.117,0.445h0.025
			c0.019-0.101,0.058-0.246,0.117-0.435l1.475-4.067H515.703z M519.688,352.476c0.537-0.336,1.157-0.503,1.86-0.503
			c1.302,0,1.953,0.683,1.953,2.05v3.477h-0.947v-0.835h-0.025c-0.374,0.641-0.926,0.962-1.655,0.962
			c-0.524,0-0.941-0.142-1.25-0.425c-0.309-0.283-0.464-0.666-0.464-1.147c0-1.009,0.597-1.597,1.792-1.763l1.602-0.225
			c0-0.882-0.365-1.323-1.094-1.323c-0.648,0-1.239,0.218-1.772,0.654V352.476z M521.289,354.961
			c-0.443,0.059-0.749,0.169-0.918,0.332c-0.166,0.163-0.249,0.391-0.249,0.684c0,0.257,0.091,0.467,0.274,0.629
			c0.182,0.163,0.423,0.245,0.722,0.245c0.417,0,0.76-0.147,1.03-0.44c0.271-0.293,0.406-0.661,0.406-1.103v-0.518L521.289,354.961z
			 M529.775,357.046c0,1.999-0.97,2.998-2.91,2.998c-0.67,0-1.253-0.125-1.748-0.376v-0.923c0.602,0.335,1.18,0.503,1.734,0.503
			c1.311,0,1.967-0.69,1.967-2.07v-0.572h-0.019c-0.41,0.681-1.022,1.021-1.836,1.021c-0.677,0-1.219-0.243-1.626-0.728
			c-0.407-0.485-0.61-1.128-0.61-1.928c0-0.922,0.224-1.651,0.673-2.188c0.45-0.54,1.049-0.81,1.797-0.81
			c0.72,0,1.254,0.286,1.602,0.859h0.019V352.1h0.957V357.046z M528.818,354.287c0.004-0.417-0.136-0.775-0.42-1.074
			c-0.283-0.3-0.631-0.449-1.044-0.449c-0.521,0-0.927,0.192-1.216,0.576c-0.29,0.381-0.435,0.905-0.435,1.572
			c0,0.573,0.14,1.037,0.42,1.392c0.28,0.355,0.651,0.532,1.113,0.532c0.466,0,0.847-0.169,1.143-0.508
			c0.296-0.338,0.443-0.768,0.439-1.289V354.287z M531.611,352.476c0.537-0.336,1.158-0.503,1.861-0.503
			c1.302,0,1.953,0.683,1.953,2.05v3.477h-0.947v-0.835h-0.025c-0.374,0.641-0.926,0.962-1.655,0.962
			c-0.524,0-0.941-0.142-1.25-0.425c-0.309-0.283-0.464-0.666-0.464-1.147c0-1.009,0.597-1.597,1.792-1.763l1.602-0.225
			c0-0.882-0.365-1.323-1.094-1.323c-0.648,0-1.239,0.218-1.773,0.654V352.476z M533.213,354.961
			c-0.443,0.059-0.749,0.169-0.918,0.332c-0.166,0.163-0.249,0.391-0.249,0.684c0,0.257,0.091,0.467,0.273,0.629
			c0.183,0.163,0.424,0.245,0.723,0.245c0.417,0,0.76-0.147,1.03-0.44c0.27-0.293,0.406-0.661,0.406-1.103v-0.518L533.213,354.961z
			 M536.895,350.195c0-0.169,0.056-0.311,0.17-0.424c0.118-0.118,0.261-0.176,0.43-0.176c0.173,0,0.317,0.057,0.435,0.171
			c0.12,0.114,0.18,0.257,0.18,0.429c0,0.17-0.06,0.311-0.18,0.425c-0.118,0.111-0.262,0.166-0.435,0.166
			c-0.172,0-0.316-0.055-0.43-0.166C536.951,350.506,536.895,350.365,536.895,350.195z M537.007,357.5v-5.4h0.957v5.4H537.007z
			 M544.243,357.5h-0.952v-3.071c0-1.11-0.405-1.665-1.216-1.665c-0.42,0-0.765,0.156-1.035,0.468
			c-0.27,0.313-0.405,0.708-0.405,1.187v3.081h-0.957v-5.4h0.957v0.893h0.019c0.407-0.68,0.998-1.02,1.773-1.02
			c0.592,0,1.043,0.19,1.352,0.571c0.31,0.378,0.464,0.929,0.464,1.655V357.5z M545.566,356.997c0-0.176,0.061-0.324,0.181-0.444
			c0.121-0.121,0.27-0.181,0.449-0.181c0.183,0,0.334,0.062,0.454,0.186c0.121,0.12,0.181,0.267,0.181,0.439
			c0,0.169-0.06,0.316-0.181,0.44c-0.12,0.12-0.273,0.18-0.459,0.18c-0.179,0-0.328-0.06-0.449-0.18
			C545.625,357.313,545.566,357.166,545.566,356.997z"/>
	</g>
</g>
</svg>
